<?xml version="1.0" encoding="UTF-8"?>
<svg version="1.1" xmlns="http://www.w3.org/2000/svg" width="67" height="65">
<path d="M0 0 C22.11 0 44.22 0 67 0 C67 21.45 67 42.9 67 65 C44.89 65 22.78 65 0 65 C0 43.55 0 22.1 0 0 Z " fill="#EEEEF3" transform="translate(0,0)"/>
<path d="M0 0 C3.4422599 2.90679725 6.20738734 5.84868648 8 10 C8.23414563 13.01844262 8.17766099 15.9797632 8 19 C8.66 19 9.32 19 10 19 C10 20.98 10 22.96 10 25 C8.906875 25.226875 7.81375 25.45375 6.6875 25.6875 C2.88705724 26.59623623 2.88705724 26.59623623 1.5625 29.4375 C-0.73420739 33.20410011 -3.87064673 33.88068813 -8 35 C-11.6721796 35.88060424 -15.03927538 36.10796054 -18.8125 36.0625 C-19.78832031 36.05347656 -20.76414062 36.04445312 -21.76953125 36.03515625 C-22.50558594 36.02355469 -23.24164063 36.01195312 -24 36 C-24 36.99 -24 37.98 -24 39 C-26.475 39.495 -26.475 39.495 -29 40 C-28.67 38.68 -28.34 37.36 -28 36 C-27.34 36 -26.68 36 -26 36 C-26 35.01 -26 34.02 -26 33 C-25.34 33 -24.68 33 -24 33 C-24 32.34 -24 31.68 -24 31 C-18.06 31 -12.12 31 -6 31 C-6 30.34 -6 29.68 -6 29 C-5.34 29 -4.68 29 -4 29 C-4.33 28.34 -4.66 27.68 -5 27 C-5.99 27.66 -6.98 28.32 -8 29 C-10.91796875 29.1953125 -10.91796875 29.1953125 -14.1875 29.125 C-15.27417969 29.10695312 -16.36085938 29.08890625 -17.48046875 29.0703125 C-18.31191406 29.04710937 -19.14335937 29.02390625 -20 29 C-20 27.68 -20 26.36 -20 25 C-23.10842723 25.33304577 -23.91361092 25.89410371 -25.9375 28.375 C-26.618125 29.24125 -27.29875 30.1075 -28 31 C-32.34482759 34 -32.34482759 34 -35 34 C-35 32.68 -35 31.36 -35 30 C-34.01 29.34 -33.02 28.68 -32 28 C-31.27034634 25.43717258 -31.27034634 25.43717258 -31 23 C-31.66 23 -32.32 23 -33 23 C-32.67 22.29875 -32.34 21.5975 -32 20.875 C-30.90955438 17.73996884 -30.84677357 15.29436818 -31 12 C-30.01 11.67 -29.02 11.34 -28 11 C-27.938125 10.29875 -27.87625 9.5975 -27.8125 8.875 C-26.46413821 4.10387366 -23.46021004 1.05865228 -19.5 -1.8125 C-12.55500799 -5.1113712 -6.66173213 -3.21143262 0 0 Z " fill="#EEEEF3" transform="translate(46,15)"/>
<path d="M0 0 C1.6874269 0.00015917 3.37485866 0.00585622 5.06225586 0.01586914 C6.39189613 0.01799156 6.39189613 0.01799156 7.74839783 0.02015686 C10.59133215 0.02577324 13.43418892 0.03832848 16.27709961 0.05102539 C18.19962452 0.05603828 20.12215065 0.06060155 22.04467773 0.06469727 C26.7680151 0.07574798 31.49129419 0.09302356 36.21459961 0.11352539 C36.21459961 1.76352539 36.21459961 3.41352539 36.21459961 5.11352539 C35.12147461 5.34040039 34.02834961 5.56727539 32.90209961 5.80102539 C29.10165685 6.70976162 29.10165685 6.70976162 27.77709961 9.55102539 C25.48039222 13.3176255 22.34395288 13.99421352 18.21459961 15.11352539 C14.54242001 15.99412963 11.17532423 16.22148593 7.40209961 16.17602539 C6.4262793 16.16700195 5.45045898 16.15797852 4.44506836 16.14868164 C3.70901367 16.13708008 2.97295898 16.12547852 2.21459961 16.11352539 C2.21459961 17.10352539 2.21459961 18.09352539 2.21459961 19.11352539 C0.56459961 19.44352539 -1.08540039 19.77352539 -2.78540039 20.11352539 C-2.45540039 18.79352539 -2.12540039 17.47352539 -1.78540039 16.11352539 C-1.12540039 16.11352539 -0.46540039 16.11352539 0.21459961 16.11352539 C0.21459961 15.12352539 0.21459961 14.13352539 0.21459961 13.11352539 C0.87459961 13.11352539 1.53459961 13.11352539 2.21459961 13.11352539 C2.21459961 12.45352539 2.21459961 11.79352539 2.21459961 11.11352539 C8.15459961 11.11352539 14.09459961 11.11352539 20.21459961 11.11352539 C20.21459961 10.45352539 20.21459961 9.79352539 20.21459961 9.11352539 C20.87459961 9.11352539 21.53459961 9.11352539 22.21459961 9.11352539 C21.88459961 8.45352539 21.55459961 7.79352539 21.21459961 7.11352539 C20.22459961 7.77352539 19.23459961 8.43352539 18.21459961 9.11352539 C15.29663086 9.30883789 15.29663086 9.30883789 12.02709961 9.23852539 C10.39708008 9.21145508 10.39708008 9.21145508 8.73413086 9.18383789 C7.48696289 9.1490332 7.48696289 9.1490332 6.21459961 9.11352539 C6.21459961 7.79352539 6.21459961 6.47352539 6.21459961 5.11352539 C3.10617238 5.44657117 2.30098869 6.0076291 0.27709961 8.48852539 C-0.40352539 9.35477539 -1.08415039 10.22102539 -1.78540039 11.11352539 C-6.13022798 14.11352539 -6.13022798 14.11352539 -8.78540039 14.11352539 C-8.78540039 12.79352539 -8.78540039 11.47352539 -8.78540039 10.11352539 C-7.79540039 9.45352539 -6.80540039 8.79352539 -5.78540039 8.11352539 C-5.37810812 5.79195942 -5.04101362 3.45664669 -4.78540039 1.11352539 C-3.78540039 0.11352539 -3.78540039 0.11352539 0 0 Z " fill="#212336" transform="translate(19.785400390625,34.886474609375)"/>
<path d="M0 0 C3.82620795 3.23102005 7.73104352 6.86607234 8.1796875 12.09375 C8.18662288 14.06339869 8.10002303 16.03288041 8 18 C6.09765625 17.74609375 6.09765625 17.74609375 4 17 C3.05859375 15.22265625 3.05859375 15.22265625 2.4375 13.0625 C1.41322562 9.55706407 1.25496907 9.16997938 -2 7 C-2 6.34 -2 5.68 -2 5 C-2.66 5 -3.32 5 -4 5 C-4 4.34 -4 3.68 -4 3 C-8.95 2.67 -13.9 2.34 -19 2 C-19.66 3.32 -20.32 4.64 -21 6 C-21.495 6.763125 -21.99 7.52625 -22.5 8.3125 C-24.25044233 11.44870917 -25.11552891 14.53015188 -26 18 C-27.32 17.67 -28.64 17.34 -30 17 C-28.98728836 9.74223323 -27.05945111 5.41243607 -22 0 C-14.49108011 -5.44396692 -7.87195519 -3.79484692 0 0 Z " fill="#535565" transform="translate(46,15)"/>
<path d="M0 0 C13.2 0 26.4 0 40 0 C40 1.65 40 3.3 40 5 C38.906875 5.226875 37.81375 5.45375 36.6875 5.6875 C32.88705724 6.59623623 32.88705724 6.59623623 31.5625 9.4375 C29.26579261 13.20410011 26.12935327 13.88068813 22 15 C18.3278204 15.88060424 14.96072462 16.10796054 11.1875 16.0625 C10.21167969 16.05347656 9.23585938 16.04445313 8.23046875 16.03515625 C7.12638672 16.01775391 7.12638672 16.01775391 6 16 C6 16.99 6 17.98 6 19 C4.35 19.33 2.7 19.66 1 20 C1.33 18.68 1.66 17.36 2 16 C2.66 16 3.32 16 4 16 C4 15.01 4 14.02 4 13 C4.66 13 5.32 13 6 13 C6 12.34 6 11.68 6 11 C11.94 11 17.88 11 24 11 C24 10.34 24 9.68 24 9 C24.66 9 25.32 9 26 9 C25.16666667 6.83333333 25.16666667 6.83333333 23 6 C23.33 5.34 23.66 4.68 24 4 C26.5625 3.375 26.5625 3.375 29 3 C29.33 4.32 29.66 5.64 30 7 C30.99 5.35 31.98 3.7 33 2 C22.11 1.67 11.22 1.34 0 1 C0 0.67 0 0.34 0 0 Z " fill="#767885" transform="translate(16,35)"/>
<path d="M0 0 C1.32 0 2.64 0 4 0 C4 1.32 4 2.64 4 4 C5.91731918 3.88544319 7.8338675 3.75793742 9.75 3.625 C11.35101563 3.52058594 11.35101563 3.52058594 12.984375 3.4140625 C15.80206432 3.0271777 17.5830366 2.44313834 20 1 C20 1.99 20 2.98 20 4 C19.34 4 18.68 4 18 4 C18 4.66 18 5.32 18 6 C12.06 6 6.12 6 0 6 C0 6.66 0 7.32 0 8 C-0.66 8 -1.32 8 -2 8 C-2 8.99 -2 9.98 -2 11 C-2.99 11.495 -2.99 11.495 -4 12 C-4.33 12.99 -4.66 13.98 -5 15 C-3.68 14.67 -2.36 14.34 -1 14 C-1 14.66 -1 15.32 -1 16 C-2.98 16 -4.96 16 -7 16 C-7 14.02 -7 12.04 -7 10 C-8.65 10 -10.3 10 -12 10 C-12 8.02 -12 6.04 -12 4 C-10.35 3.34 -8.7 2.68 -7 2 C-7.99 3.485 -7.99 3.485 -9 5 C-9.66 5 -10.32 5 -11 5 C-11 6.32 -11 7.64 -11 9 C-9.53699018 8.06981474 -8.07974421 7.13055973 -6.625 6.1875 C-5.81289063 5.66542969 -5.00078125 5.14335938 -4.1640625 4.60546875 C-1.76649759 3.01562803 -1.76649759 3.01562803 0 0 Z " fill="#E3E4EA" transform="translate(22,40)"/>
<path d="M0 0 C0.99 0 1.98 0 3 0 C3 1.32 3 2.64 3 4 C3.66 4 4.32 4 5 4 C5.33 3.01 5.66 2.02 6 1 C9.67566856 -0.61729417 14.07239675 -0.06546005 18 0 C18 1.65 18 3.3 18 5 C19.98 4.67 21.96 4.34 24 4 C23.67 4.66 23.34 5.32 23 6 C19.04 6 15.08 6 11 6 C11 4.68 11 3.36 11 2 C7.89157277 2.33304577 7.08638908 2.89410371 5.0625 5.375 C4.381875 6.24125 3.70125 7.1075 3 8 C-1.34482759 11 -1.34482759 11 -4 11 C-4 9.68 -4 8.36 -4 7 C-3.01 6.34 -2.02 5.68 -1 5 C-0.27034634 2.43717258 -0.27034634 2.43717258 0 0 Z " fill="#848792" transform="translate(15,38)"/>
<path d="M0 0 C0.33 0.99 0.66 1.98 1 3 C0.34 3 -0.32 3 -1 3 C-1 3.99 -1 4.98 -1 6 C-7.8165735 7.7879537 -13.96517526 8.23668569 -21 8 C-21 8.99 -21 9.98 -21 11 C-22.65 11.33 -24.3 11.66 -26 12 C-25.67 10.68 -25.34 9.36 -25 8 C-24.34 8 -23.68 8 -23 8 C-23 7.34 -23 6.68 -23 6 C-16.11997829 3.37903935 -9.27823961 3.81829638 -2 4 C-2 3.34 -2 2.68 -2 2 C-1.34 2 -0.68 2 0 2 C0 1.34 0 0.68 0 0 Z " fill="#515464" transform="translate(43,43)"/>
<path d="M0 0 C0.33 0 0.66 0 1 0 C1.226875 1.11375 1.45375 2.2275 1.6875 3.375 C2.60623658 7.16038373 2.60623658 7.16038373 5.625 8.4375 C6.40875 8.623125 7.1925 8.80875 8 9 C8 9.33 8 9.66 8 10 C-5.2 10.33 -18.4 10.66 -32 11 C-32.33 11.66 -32.66 12.32 -33 13 C-33.66 13 -34.32 13 -35 13 C-34.67 12.29875 -34.34 11.5975 -34 10.875 C-32.90955438 7.73996884 -32.84677357 5.29436818 -33 2 C-32.34 1.67 -31.68 1.34 -31 1 C-31 2.98 -31 4.96 -31 7 C-27.6978772 8.1007076 -25.05916721 8.20627072 -21.58203125 8.31640625 C-20.32841797 8.35830078 -19.07480469 8.40019531 -17.78320312 8.44335938 C-15.81770508 8.50233398 -15.81770508 8.50233398 -13.8125 8.5625 C-12.47720022 8.60570992 -11.14191348 8.649325 -9.80664062 8.69335938 C-6.53786703 8.79956502 -3.26901667 8.90160997 0 9 C0 6.03 0 3.06 0 0 Z " fill="#C8C9D0" transform="translate(48,25)"/>
<path d="M0 0 C1.32 0.33 2.64 0.66 4 1 C4 1.66 4 2.32 4 3 C4.99 3 5.98 3 7 3 C7.33 2.34 7.66 1.68 8 1 C11.92739438 5.90924297 12.43177893 8.73920552 12 15 C10.09765625 14.74609375 10.09765625 14.74609375 8 14 C7.05859375 12.22265625 7.05859375 12.22265625 6.4375 10.0625 C5.41322562 6.55706407 5.25496907 6.16997938 2 4 C2 3.34 2 2.68 2 2 C1.34 2 0.68 2 0 2 C0 1.34 0 0.68 0 0 Z " fill="#7F808D" transform="translate(42,18)"/>
<path d="M0 0 C10.57614549 2.53165004 10.57614549 2.53165004 14 6.0625 C15 8 15 8 15 10 C14.01 10 13.02 10 12 10 C12 9.34 12 8.68 12 8 C11.4225 7.87625 10.845 7.7525 10.25 7.625 C8 7 8 7 6.125 6 C3.4617351 4.74669887 0.90277671 4.39583319 -2 4 C-1.34 2.68 -0.68 1.36 0 0 Z " fill="#3F4152" transform="translate(34,11)"/>
<path d="M0 0 C0.66 0.33 1.32 0.66 2 1 C0.02 1.99 0.02 1.99 -2 3 C-2 4.32 -2 5.64 -2 7 C-0.35 6.01 1.3 5.02 3 4 C3 5.32 3 6.64 3 8 C4.32 7.67 5.64 7.34 7 7 C7 7.66 7 8.32 7 9 C6.01 9.495 6.01 9.495 5 10 C4.67 10.99 4.34 11.98 4 13 C5.32 12.67 6.64 12.34 8 12 C8 12.66 8 13.32 8 14 C6.02 14 4.04 14 2 14 C2 12.02 2 10.04 2 8 C0.35 8 -1.3 8 -3 8 C-3.1875 5.125 -3.1875 5.125 -3 2 C-2.01 1.34 -1.02 0.68 0 0 Z " fill="#B7B9C1" transform="translate(13,42)"/>
<path d="M0 0 C3.96 0 7.92 0 12 0 C12 1.32 12 2.64 12 4 C12.33 2.68 12.66 1.36 13 0 C14.32 0.33 15.64 0.66 17 1 C17 2.32 17 3.64 17 5 C15.02 5.33 13.04 5.66 11 6 C11 4.35 11 2.7 11 1 C7.37 1.33 3.74 1.66 0 2 C0 1.34 0 0.68 0 0 Z " fill="#383B4C" transform="translate(22,37)"/>
<path d="M0 0 C0 0.33 0 0.66 0 1 C-2.97 1 -5.94 1 -9 1 C-9.66 2.32 -10.32 3.64 -11 5 C-12.7265625 6.703125 -12.7265625 6.703125 -14.625 8.25 C-15.25664062 8.77078125 -15.88828125 9.2915625 -16.5390625 9.828125 C-17.02117188 10.21484375 -17.50328125 10.6015625 -18 11 C-14.93157107 0.00479634 -10.7320478 -0.759343 0 0 Z " fill="#C7C9D0" transform="translate(39,17)"/>
<path d="M0 0 C0 1.65 0 3.3 0 5 C1.98 4.67 3.96 4.34 6 4 C5.67 4.66 5.34 5.32 5 6 C1.37 6 -2.26 6 -6 6 C-6 4.68 -6 3.36 -6 2 C-2.25 0 -2.25 0 0 0 Z " fill="#575968" transform="translate(33,38)"/>
<path d="M0 0 C2.1875 0.3125 2.1875 0.3125 4 1 C3.67 1.66 3.34 2.32 3 3 C4.36125 2.9071875 4.36125 2.9071875 5.75 2.8125 C9 3 9 3 13 6 C9.37 5.67 5.74 5.34 2 5 C2 4.34 2 3.68 2 3 C0.35 3 -1.3 3 -3 3 C-1.75 1.4375 -1.75 1.4375 0 0 Z " fill="#7D7E8B" transform="translate(29,12)"/>
<path d="M0 0 C1.32 0.33 2.64 0.66 4 1 C4 1.66 4 2.32 4 3 C5.65 3.33 7.3 3.66 9 4 C9 7.3 9 10.6 9 14 C7 12 7 12 6.0625 9 C5.24072925 5.72778248 5.24072925 5.72778248 2 4 C2 3.34 2 2.68 2 2 C1.34 2 0.68 2 0 2 C0 1.34 0 0.68 0 0 Z " fill="#828490" transform="translate(42,18)"/>
<path d="M0 0 C1.65 0 3.3 0 5 0 C5.33 1.65 5.66 3.3 6 5 C6.99 5 7.98 5 9 5 C9 5.66 9 6.32 9 7 C7.88625 6.505 7.88625 6.505 6.75 6 C3.86116688 4.77217129 3.86116688 4.77217129 0 5 C0 3.35 0 1.7 0 0 Z " fill="#BBBDC5" transform="translate(33,7)"/>
<path d="M0 0 C5.28 0 10.56 0 16 0 C16 0.33 16 0.66 16 1 C14.93072266 1.09087891 14.93072266 1.09087891 13.83984375 1.18359375 C8.53039712 1.64808101 3.266591 2.18075251 -2 3 C-1.34 2.67 -0.68 2.34 0 2 C0 1.34 0 0.68 0 0 Z " fill="#9FA0AB" transform="translate(22,46)"/>
<path d="M0 0 C0.33 0.99 0.66 1.98 1 3 C0.34 3 -0.32 3 -1 3 C-1 3.66 -1 4.32 -1 5 C-5.29 4.67 -9.58 4.34 -14 4 C-14 3.67 -14 3.34 -14 3 C-12.86111328 2.92652344 -12.86111328 2.92652344 -11.69921875 2.8515625 C-10.20841797 2.73941406 -10.20841797 2.73941406 -8.6875 2.625 C-7.70136719 2.55539063 -6.71523438 2.48578125 -5.69921875 2.4140625 C-2.78471567 2.16134528 -2.78471567 2.16134528 0 0 Z " fill="#AAADB5" transform="translate(41,41)"/>
<path d="M0 0 C0.33 0.99 0.66 1.98 1 3 C0.34 3 -0.32 3 -1 3 C-1 3.99 -1 4.98 -1 6 C-3.64 6.33 -6.28 6.66 -9 7 C-8.34 6.67 -7.68 6.34 -7 6 C-7 5.34 -7 4.68 -7 4 C-5.35 4 -3.7 4 -2 4 C-2 3.34 -2 2.68 -2 2 C-1.34 2 -0.68 2 0 2 C0 1.34 0 0.68 0 0 Z " fill="#434656" transform="translate(43,43)"/>
<path d="M0 0 C0.33 0.99 0.66 1.98 1 3 C-0.28965176 4.37562854 -1.62689293 5.70766393 -3 7 C-3.66 7 -4.32 7 -5 7 C-5 5.68 -5 4.36 -5 3 C-2.5 1.25 -2.5 1.25 0 0 Z " fill="#4B4D5D" transform="translate(16,42)"/>
<path d="M0 0 C0.66 0 1.32 0 2 0 C5 3.46153846 5 3.46153846 5 6 C4.01 6 3.02 6 2 6 C2 5.34 2 4.68 2 4 C0.68 3.67 -0.64 3.34 -2 3 C-1.34 2.67 -0.68 2.34 0 2 C0 1.34 0 0.68 0 0 Z " fill="#4D4F5F" transform="translate(44,15)"/>
<path d="M0 0 C0 3 0 3 -1.875 4.9375 C-2.57625 5.618125 -3.2775 6.29875 -4 7 C-5.23512079 9.13309192 -5.23512079 9.13309192 -6 11 C-6.375 8.3125 -6.375 8.3125 -6 5 C-4.176017 2.93601924 -2.27236161 1.60958947 0 0 Z " fill="#B5B8C0" transform="translate(23,15)"/>
<path d="M0 0 C1.65 0 3.3 0 5 0 C5 0.66 5 1.32 5 2 C5.66 2.33 6.32 2.66 7 3 C5.68 3.99 4.36 4.98 3 6 C3 4.35 3 2.7 3 1 C2.01 1.33 1.02 1.66 0 2 C0 1.34 0 0.68 0 0 Z " fill="#3C3E4F" transform="translate(42,37)"/>
<path d="M0 0 C3 3 3 3 3.1875 6.1875 C3.0946875 7.5796875 3.0946875 7.5796875 3 9 C2.34 9 1.68 9 1 9 C0.67 6.03 0.34 3.06 0 0 Z " fill="#414354" transform="translate(50,23)"/>
</svg>
