<?xml version="1.0" encoding="UTF-8"?>
<svg version="1.1" xmlns="http://www.w3.org/2000/svg" width="60" height="63">
<path d="M0 0 C19.8 0 39.6 0 60 0 C60 20.79 60 41.58 60 63 C40.2 63 20.4 63 0 63 C0 42.21 0 21.42 0 0 Z " fill="#EEEEF3" transform="translate(0,0)"/>
<path d="M0 0 C1.65 0.33 3.3 0.66 5 1 C5 2.32 5 3.64 5 5 C11.27 5 17.54 5 24 5 C24.33 3.68 24.66 2.36 25 1 C26.32 0.67 27.64 0.34 29 0 C29.495 1.485 29.495 1.485 30 3 C31.98 3 33.96 3 36 3 C36 4.32 36 5.64 36 7 C36.66 7 37.32 7 38 7 C37.36892356 9.94502337 36.73729677 12.51814748 35 15 C31.38181456 16.57312411 28.97906647 17 25 17 C25 20.63 25 24.26 25 28 C26.65 28.33 28.3 28.66 30 29 C32.29404844 32.44107266 32.26293056 33.96839809 32 38 C31 39 31 39 27.9375 39.0625 C26.968125 39.041875 25.99875 39.02125 25 39 C24.67 39.99 24.34 40.98 24 42 C23.34 41.67 22.68 41.34 22 41 C19.795636 40.77049681 17.58607827 40.58924067 15.375 40.4375 C14.18648437 40.35371094 12.99796875 40.26992188 11.7734375 40.18359375 C10.40058594 40.09271484 10.40058594 40.09271484 9 40 C8.67 40.99 8.34 41.98 8 43 C6.68 42.67 5.36 42.34 4 42 C4 41.34 4 40.68 4 40 C2.35 40 0.7 40 -1 40 C-1.94721072 37.39517051 -2.30222393 35.69325299 -1.17578125 33.109375 C-0.17063275 31.37417127 0.9106145 29.68359577 2 28 C3.65 28 5.3 28 7 28 C7 22.72 7 17.44 7 12 C8.32 12 9.64 12 11 12 C11 17.61 11 23.22 11 29 C14.96 28.505 14.96 28.505 19 28 C19.33 22.72 19.66 17.44 20 12 C21.98 11.34 23.96 10.68 26 10 C18.74 10 11.48 10 4 10 C4 11.98 4 13.96 4 16 C1.03 15.67 -1.94 15.34 -5 15 C-5.33 14.01 -5.66 13.02 -6 12 C-6.66 11.67 -7.32 11.34 -8 11 C-7.67 9.68 -7.34 8.36 -7 7 C-6.34 7 -5.68 7 -5 7 C-5 5.68 -5 4.36 -5 3 C-3.68 3 -2.36 3 -1 3 C-0.67 2.01 -0.34 1.02 0 0 Z " fill="#A7AAB3" transform="translate(15,10)"/>
<path d="M0 0 C1.32 0 2.64 0 4 0 C4 5.61 4 11.22 4 17 C7.96 16.505 7.96 16.505 12 16 C12.33 10.72 12.66 5.44 13 0 C13.66 0 14.32 0 15 0 C15.33 5.94 15.66 11.88 16 18 C17.98 18 19.96 18 22 18 C24 21 24 21 23.625 23.6875 C23.41875 24.450625 23.2125 25.21375 23 26 C21.35 26.33 19.7 26.66 18 27 C17.67 27.99 17.34 28.98 17 30 C16.34 29.67 15.68 29.34 15 29 C12.795636 28.77049681 10.58607827 28.58924067 8.375 28.4375 C7.18648437 28.35371094 5.99796875 28.26992188 4.7734375 28.18359375 C3.40058594 28.09271484 3.40058594 28.09271484 2 28 C1.67 28.99 1.34 29.98 1 31 C-0.32 30.67 -1.64 30.34 -3 30 C-3 29.34 -3 28.68 -3 28 C-4.65 28 -6.3 28 -8 28 C-8.94721072 25.39517051 -9.30222393 23.69325299 -8.17578125 21.109375 C-7.17063275 19.37417127 -6.0893855 17.68359577 -5 16 C-3.35 16 -1.7 16 0 16 C0 10.72 0 5.44 0 0 Z " fill="#8C8E99" transform="translate(22,22)"/>
<path d="M0 0 C7.26 0 14.52 0 22 0 C21.67 0.99 21.34 1.98 21 3 C18.525 2.505 18.525 2.505 16 2 C16.01160156 3.14339844 16.02320312 4.28679688 16.03515625 5.46484375 C16.04453288 6.95572754 16.05363321 8.44661309 16.0625 9.9375 C16.07087891 10.69224609 16.07925781 11.44699219 16.08789062 12.22460938 C16.09652441 14.14994313 16.05224333 16.07535581 16 18 C15.67 18.33 15.34 18.66 15 19 C12.36 19 9.72 19 7 19 C7 13.39 7 7.78 7 2 C5.68 2 4.36 2 3 2 C3 7.28 3 12.56 3 18 C2.67 18 2.34 18 2 18 C1.93941406 17.03578125 1.87882812 16.0715625 1.81640625 15.078125 C1.73261719 13.81484375 1.64882813 12.5515625 1.5625 11.25 C1.48128906 9.99703125 1.40007813 8.7440625 1.31640625 7.453125 C1.07746574 3.87635863 1.07746574 3.87635863 0 0 Z " fill="#ADAFB7" transform="translate(19,20)"/>
<path d="M0 0 C0.66 0 1.32 0 2 0 C2.33 5.94 2.66 11.88 3 18 C4.98 18 6.96 18 9 18 C11 21 11 21 10.625 23.6875 C10.315625 24.8321875 10.315625 24.8321875 10 26 C8.35 26.33 6.7 26.66 5 27 C4.67 27.99 4.34 28.98 4 30 C3.34 29.67 2.68 29.34 2 29 C2 28.34 2 27.68 2 27 C-2.29 27 -6.58 27 -11 27 C-11.33 26.34 -11.66 25.68 -12 25 C-5.73 25 0.54 25 7 25 C6.67 23.68 6.34 22.36 6 21 C-5.385 20.505 -5.385 20.505 -17 20 C-11.10984701 15.58238526 -7.19462808 17.20859091 0 18 C0 12.06 0 6.12 0 0 Z " fill="#333446" transform="translate(35,22)"/>
<path d="M0 0 C0.99 0 1.98 0 3 0 C3 4.29 3 8.58 3 13 C2.01 12.67 1.02 12.34 0 12 C0 10.68 0 9.36 0 8 C-7.26 8 -14.52 8 -22 8 C-22 9.65 -22 11.3 -22 13 C-22.99 12.67 -23.98 12.34 -25 12 C-25 8.7 -25 5.4 -25 2 C-24.01 2 -23.02 2 -22 2 C-22 2.99 -22 3.98 -22 5 C-14.74 5 -7.48 5 0 5 C0 3.35 0 1.7 0 0 Z " fill="#404354" transform="translate(41,12)"/>
<path d="M0 0 C2.31 0 4.62 0 7 0 C7 4.95 7 9.9 7 15 C4.69 15 2.38 15 0 15 C0 10.05 0 5.1 0 0 Z " fill="#EFEFF4" transform="translate(27,22)"/>
<path d="M0 0 C1.32 0 2.64 0 4 0 C4 5.61 4 11.22 4 17 C6.97 16.67 9.94 16.34 13 16 C13 16.66 13 17.32 13 18 C12.11957031 17.98839844 11.23914063 17.97679688 10.33203125 17.96484375 C9.17058594 17.95582031 8.00914063 17.94679688 6.8125 17.9375 C5.08966797 17.92009766 5.08966797 17.92009766 3.33203125 17.90234375 C0.40699414 17.98807168 -2.16316291 18.32150977 -5 19 C-5 19.66 -5 20.32 -5 21 C-5.66 20.67 -6.32 20.34 -7 20 C-6.34 18.68 -5.68 17.36 -5 16 C-3.35 16 -1.7 16 0 16 C0 10.72 0 5.44 0 0 Z " fill="#5F616F" transform="translate(22,22)"/>
<path d="M0 0 C0 0.66 0 1.32 0 2 C-0.99 2 -1.98 2 -3 2 C-2.88601335 3.62580966 -2.75844341 5.25067157 -2.625 6.875 C-2.55539063 7.77992187 -2.48578125 8.68484375 -2.4140625 9.6171875 C-2.20431868 12.17941903 -2.20431868 12.17941903 0 14 C-2.97 13.67 -5.94 13.34 -9 13 C-9.33 12.01 -9.66 11.02 -10 10 C-10.66 9.67 -11.32 9.34 -12 9 C-11.67 7.68 -11.34 6.36 -11 5 C-10.34 5 -9.68 5 -9 5 C-8.67 4.01 -8.34 3.02 -8 2 C-6.0625 1.375 -6.0625 1.375 -4 1 C-2 0 -2 0 0 0 Z " fill="#7B7A89" transform="translate(19,12)"/>
<path d="M0 0 C1.65 0.33 3.3 0.66 5 1 C5 2.32 5 3.64 5 5 C11.27 5 17.54 5 24 5 C24.33 3.68 24.66 2.36 25 1 C26.32 0.67 27.64 0.34 29 0 C28.34 0.66 27.68 1.32 27 2 C26.67 3.65 26.34 5.3 26 7 C18.74 7 11.48 7 4 7 C4 5.35 4 3.7 4 2 C3.071875 2.495 2.14375 2.99 1.1875 3.5 C-2 5 -2 5 -5 5 C-5 4.34 -5 3.68 -5 3 C-3.68 3 -2.36 3 -1 3 C-0.67 2.01 -0.34 1.02 0 0 Z " fill="#BFC1C9" transform="translate(15,10)"/>
<path d="M0 0 C0.99 0 1.98 0 3 0 C5 3 5 3 4.625 5.6875 C4.315625 6.8321875 4.315625 6.8321875 4 8 C2.35 8.33 0.7 8.66 -1 9 C-1.33 9.99 -1.66 10.98 -2 12 C-2.66 11.67 -3.32 11.34 -4 11 C-4 10.34 -4 9.68 -4 9 C-8.29 9 -12.58 9 -17 9 C-17.33 8.34 -17.66 7.68 -18 7 C-11.73 7 -5.46 7 1 7 C0.67 4.69 0.34 2.38 0 0 Z " fill="#444757" transform="translate(41,40)"/>
<path d="M0 0 C0.33 0 0.66 0 1 0 C1 1.65 1 3.3 1 5 C2.32 5.33 3.64 5.66 5 6 C5 5.34 5 4.68 5 4 C10.94 4.66 16.88 5.32 23 6 C23 6.33 23 6.66 23 7 C18.71 7 14.42 7 10 7 C9.67 7.99 9.34 8.98 9 10 C7.68 9.67 6.36 9.34 5 9 C5 8.34 5 7.68 5 7 C3.35 7 1.7 7 0 7 C-1.125 2.25 -1.125 2.25 0 0 Z " fill="#737582" transform="translate(14,43)"/>
<path d="M0 0 C0.99 0 1.98 0 3 0 C3 0.99 3 1.98 3 3 C10.26 3 17.52 3 25 3 C25 3.33 25 3.66 25 4 C17.41 4 9.82 4 2 4 C2.33 6.31 2.66 8.62 3 11 C2.01 10.67 1.02 10.34 0 10 C0 6.7 0 3.4 0 0 Z " fill="#5C5E6E" transform="translate(16,14)"/>
<path d="M0 0 C1.32 0.33 2.64 0.66 4 1 C3.34 1 2.68 1 2 1 C2 1.66 2 2.32 2 3 C1.34 3 0.68 3 0 3 C0 3.66 0 4.32 0 5 C-2.97 4.505 -2.97 4.505 -6 4 C-6 3.34 -6 2.68 -6 2 C-8.97 2 -11.94 2 -15 2 C-15 2.99 -15 3.98 -15 5 C-16.98 5 -18.96 5 -21 5 C-20.67 4.34 -20.34 3.68 -20 3 C-19.01 3 -18.02 3 -17 3 C-16.67 2.34 -16.34 1.68 -16 1 C-13.87506859 0.97306425 -11.75004088 0.95363372 -9.625 0.9375 C-8.44164062 0.92589844 -7.25828125 0.91429687 -6.0390625 0.90234375 C-3 1 -3 1 -1 2 C-0.67 1.34 -0.34 0.68 0 0 Z " fill="#BEC0C8" transform="translate(40,49)"/>
<path d="M0 0 C2.475 0.495 2.475 0.495 5 1 C5 1.66 5 2.32 5 3 C5.66 3 6.32 3 7 3 C7 3.99 7 4.98 7 6 C6.01 6 5.02 6 4 6 C3.67 6.99 3.34 7.98 3 9 C2.01 8.67 1.02 8.34 0 8 C0 5.36 0 2.72 0 0 Z " fill="#5D606F" transform="translate(46,14)"/>
<path d="M0 0 C0.33 0.66 0.66 1.32 1 2 C3.3140622 2.73075648 5.64828869 3.40138258 8 4 C8 4.66 8 5.32 8 6 C9.32 6.66 10.64 7.32 12 8 C9.03 7.67 6.06 7.34 3 7 C2.67 6.01 2.34 5.02 2 4 C1.34 3.67 0.68 3.34 0 3 C0 2.01 0 1.02 0 0 Z " fill="#A6A9B1" transform="translate(7,18)"/>
<path d="M0 0 C1.16015625 0.22042969 2.3203125 0.44085938 3.515625 0.66796875 C5.27132813 0.98701172 5.27132813 0.98701172 7.0625 1.3125 C8.40054688 1.58126953 8.40054688 1.58126953 9.765625 1.85546875 C9.765625 2.18546875 9.765625 2.51546875 9.765625 2.85546875 C4.155625 2.85546875 -1.454375 2.85546875 -7.234375 2.85546875 C-3.234375 -0.14453125 -3.234375 -0.14453125 0 0 Z " fill="#1C1E32" transform="translate(25.234375,39.14453125)"/>
<path d="M0 0 C0 1.98 0 3.96 0 6 C-2.475 5.01 -2.475 5.01 -5 4 C-5 3.01 -5 2.02 -5 1 C-2 0 -2 0 0 0 Z " fill="#444556" transform="translate(13,16)"/>
<path d="M0 0 C2 2 2 2 2.125 5.125 C2.08375 6.07375 2.0425 7.0225 2 8 C0.68 7.67 -0.64 7.34 -2 7 C-2 5.35 -2 3.7 -2 2 C-1.34 2 -0.68 2 0 2 C0 1.34 0 0.68 0 0 Z " fill="#3D3F50" transform="translate(17,41)"/>
<path d="M0 0 C0.99 0 1.98 0 3 0 C5 3 5 3 5 7 C4.01 7 3.02 7 2 7 C0 1.125 0 1.125 0 0 Z " fill="#494D5C" transform="translate(41,40)"/>
</svg>
