<?xml version="1.0" encoding="UTF-8"?>
<svg version="1.1" xmlns="http://www.w3.org/2000/svg" width="35" height="31">
<path d="M0 0 C11.55 0 23.1 0 35 0 C35 10.23 35 20.46 35 31 C23.45 31 11.9 31 0 31 C0 20.77 0 10.54 0 0 Z " fill="#FDFDFD" transform="translate(0,0)"/>
<path d="M0 0 C2.79192205 -0.05380578 5.5828141 -0.09357669 8.375 -0.125 C9.1690625 -0.14175781 9.963125 -0.15851562 10.78125 -0.17578125 C12.85492015 -0.19335473 14.92883241 -0.10335168 17 0 C19 2 19 2 19.1953125 5.9140625 C19.18200376 7.48449351 19.15813602 9.05486221 19.125 10.625 C19.11597656 11.42679688 19.10695313 12.22859375 19.09765625 13.0546875 C19.07406223 15.03658523 19.03819065 17.01832981 19 19 C15.40537669 21.25998595 12.43404325 21.20868087 8.25 21.125 C7.07953125 21.10695313 5.9090625 21.08890625 4.703125 21.0703125 C3.81109375 21.04710938 2.9190625 21.02390625 2 21 C2 20.34 2 19.68 2 19 C1.34 19 0.68 19 0 19 C0 18.34 0 17.68 0 17 C-0.66 17 -1.32 17 -2 17 C-2 12.05 -2 7.1 -2 2 C-1.34 2 -0.68 2 0 2 C0 1.34 0 0.68 0 0 Z " fill="#B2B7C3" transform="translate(11,8)"/>
<path d="M0 0 C2.79192205 -0.05380578 5.5828141 -0.09357669 8.375 -0.125 C9.1690625 -0.14175781 9.963125 -0.15851562 10.78125 -0.17578125 C12.85492015 -0.19335473 14.92883241 -0.10335168 17 0 C19 2 19 2 19.1953125 5.9140625 C19.18200376 7.48449351 19.15813602 9.05486221 19.125 10.625 C19.11597656 11.42679688 19.10695313 12.22859375 19.09765625 13.0546875 C19.07406223 15.03658523 19.03819065 17.01832981 19 19 C15.40537669 21.25998595 12.43404325 21.20868087 8.25 21.125 C7.07953125 21.10695313 5.9090625 21.08890625 4.703125 21.0703125 C3.81109375 21.04710938 2.9190625 21.02390625 2 21 C2 20.34 2 19.68 2 19 C5.96 18.67 9.92 18.34 14 18 C14 16.68 14 15.36 14 14 C15.32 14 16.64 14 18 14 C18 13.34 18 12.68 18 12 C16.68 12 15.36 12 14 12 C14 8.7 14 5.4 14 2 C10.7 2 7.4 2 4 2 C4 3.32 4 4.64 4 6 C2.68 6 1.36 6 0 6 C-0.33 9.63 -0.66 13.26 -1 17 C-1.33 17 -1.66 17 -2 17 C-2 12.05 -2 7.1 -2 2 C-1.34 2 -0.68 2 0 2 C0 1.34 0 0.68 0 0 Z " fill="#C7CBD4" transform="translate(11,8)"/>
<path d="M0 0 C4.62 0 9.24 0 14 0 C13.01 0.495 13.01 0.495 12 1 C12 4.3 12 7.6 12 11 C13.32 11 14.64 11 16 11 C16 11.66 16 12.32 16 13 C14.68 13 13.36 13 12 13 C12 14.32 12 15.64 12 17 C12.66 17.33 13.32 17.66 14 18 C9.38 18 4.76 18 0 18 C4 16 4 16 10 17 C10 11.72 10 6.44 10 1 C6.7 1 3.4 1 0 1 C0 0.67 0 0.34 0 0 Z " fill="#9EA5B4" transform="translate(13,9)"/>
<path d="M0 0 C0.99 0 1.98 0 3 0 C3 0.66 3 1.32 3 2 C3.66 2 4.32 2 5 2 C4.6875 3.9375 4.6875 3.9375 4 6 C0.57767028 7.14077657 -2.08673217 7.09815117 -5.6875 7.0625 C-7.45673828 7.04896484 -7.45673828 7.04896484 -9.26171875 7.03515625 C-10.16535156 7.02355469 -11.06898437 7.01195312 -12 7 C-12 6.34 -12 5.68 -12 5 C-6.06 4.505 -6.06 4.505 0 4 C0 2.68 0 1.36 0 0 Z " fill="#CBCFD7" transform="translate(25,22)"/>
<path d="M0 0 C0.66 0.33 1.32 0.66 2 1 C2 4.63 2 8.26 2 12 C1.34 12 0.68 12 0 12 C0.33 10.68 0.66 9.36 1 8 C-0.32 8 -1.64 8 -3 8 C-3 6.02 -3 4.04 -3 2 C-2.01 2 -1.02 2 0 2 C0 1.34 0 0.68 0 0 Z " fill="#B5BBC5" transform="translate(28,12)"/>
<path d="M0 0 C1.98 0 3.96 0 6 0 C6 1.32 6 2.64 6 4 C4.02 4 2.04 4 0 4 C0 2.68 0 1.36 0 0 Z " fill="#D9DCE2" transform="translate(17,22)"/>
<path d="M0 0 C2.475 0.495 2.475 0.495 5 1 C5 1.99 5 2.98 5 4 C3.68 4 2.36 4 1 4 C1.66 5.65 2.32 7.3 3 9 C2.01 9.33 1.02 9.66 0 10 C0 6.7 0 3.4 0 0 Z " fill="#A5ABB9" transform="translate(10,13)"/>
<path d="M0 0 C1.65 0 3.3 0 5 0 C5 1.32 5 2.64 5 4 C3.02 4 1.04 4 -1 4 C-0.67 2.68 -0.34 1.36 0 0 Z " fill="#DDDFE5" transform="translate(18,10)"/>
<path d="M0 0 C1.98 0 3.96 0 6 0 C6 0.99 6 1.98 6 3 C4.02 3 2.04 3 0 3 C0 2.01 0 1.02 0 0 Z " fill="#D7DAE0" transform="translate(17,17)"/>
<path d="M0 0 C1.65 0 3.3 0 5 0 C5 0.99 5 1.98 5 3 C3.02 3 1.04 3 -1 3 C-0.67 2.01 -0.34 1.02 0 0 Z " fill="#B4B9C5" transform="translate(18,14)"/>
</svg>
