<?xml version="1.0" encoding="UTF-8"?>
<svg version="1.1" xmlns="http://www.w3.org/2000/svg" width="39" height="37">
<path d="M0 0 C12.87 0 25.74 0 39 0 C39 12.21 39 24.42 39 37 C26.13 37 13.26 37 0 37 C0 24.79 0 12.58 0 0 Z " fill="#FCFCFC" transform="translate(0,0)"/>
<path d="M0 0 C8.25 0 16.5 0 25 0 C25 1.65 25 3.3 25 5 C16.75 5 8.5 5 0 5 C0 3.35 0 1.7 0 0 Z " fill="#C2C5D0" transform="translate(7,27)"/>
<path d="M0 0 C7.92 0 15.84 0 24 0 C24 1.65 24 3.3 24 5 C15.75 5 7.5 5 -1 5 C-0.67 3.35 -0.34 1.7 0 0 Z " fill="#C0C5D0" transform="translate(8,8)"/>
<path d="M0 0 C7.59 0 15.18 0 23 0 C23.33 0.99 23.66 1.98 24 3 C15.75 3 7.5 3 -1 3 C-0.67 2.01 -0.34 1.02 0 0 Z " fill="#B0B5BF" transform="translate(8,18)"/>
</svg>
