<?xml version="1.0" encoding="UTF-8"?>
<svg version="1.1" xmlns="http://www.w3.org/2000/svg" width="63" height="64">
<path d="M0 0 C20.79 0 41.58 0 63 0 C63 21.12 63 42.24 63 64 C42.21 64 21.42 64 0 64 C0 42.88 0 21.76 0 0 Z " fill="#EDEDF2" transform="translate(0,0)"/>
<path d="M0 0 C0.99 0 1.98 0 3 0 C3.66 0.99 4.32 1.98 5 3 C5.99 3.33 6.98 3.66 8 4 C11.68515349 10.18517546 11.45012399 16.26336578 11.375 23.3125 C11.38660156 24.38951172 11.39820313 25.46652344 11.41015625 26.57617188 C11.3848615 33.5364447 10.41228511 39.46741469 8 46 C3.08879777 46.12373184 -1.82149485 46.21439824 -6.73388672 46.2746582 C-8.40429489 46.29978078 -10.07459337 46.33388552 -11.74462891 46.37719727 C-14.1477362 46.43795399 -16.54938904 46.46623021 -18.953125 46.48828125 C-19.69806213 46.51408768 -20.44299927 46.5398941 -21.21051025 46.56648254 C-24.92561037 46.56848565 -26.61965834 46.35476427 -29.37792969 43.78198242 C-32.26181592 38.83588314 -33.24989258 35.3636675 -33.1953125 29.60546875 C-33.18886719 28.40341797 -33.18242188 27.20136719 -33.17578125 25.96289062 C-33.15902344 24.71701172 -33.14226563 23.47113281 -33.125 22.1875 C-33.11597656 20.92228516 -33.10695313 19.65707031 -33.09765625 18.35351562 C-33.07412394 15.23548436 -33.04124545 12.11783903 -33 9 C-32.34 9 -31.68 9 -31 9 C-30.9071875 8.13375 -30.9071875 8.13375 -30.8125 7.25 C-29.63849508 3.99890945 -27.85403925 2.89166226 -25 1 C-22.13745117 0.63769531 -22.13745117 0.63769531 -19.04296875 0.828125 C-17.93115234 0.88613281 -16.81933594 0.94414062 -15.67382812 1.00390625 C-13.9480957 1.12572266 -13.9480957 1.12572266 -12.1875 1.25 C-11.01767578 1.31574219 -9.84785156 1.38148437 -8.64257812 1.44921875 C-5.7600452 1.61393492 -2.88013169 1.79815275 0 2 C0 1.34 0 0.68 0 0 Z " fill="#626373" transform="translate(42,11)"/>
<path d="M0 0 C11.88 0 23.76 0 36 0 C36 7.26 36 14.52 36 22 C35.34 22 34.68 22 34 22 C33.34 23.32 32.68 24.64 32 26 C27.56251365 26.02896822 23.12505153 26.04678788 18.6875 26.0625 C17.42486328 26.07087891 16.16222656 26.07925781 14.86132812 26.08789062 C13.04858398 26.09272461 13.04858398 26.09272461 11.19921875 26.09765625 C9.52605591 26.10551147 9.52605591 26.10551147 7.8190918 26.11352539 C5 26 5 26 2 25 C-0.20192224 21.69711664 -0.23959968 20.72537273 -0.1953125 16.89453125 C-0.19031738 16.00870361 -0.18532227 15.12287598 -0.18017578 14.21020508 C-0.16196777 13.0889624 -0.14375977 11.96771973 -0.125 10.8125 C-0.08375 7.244375 -0.0425 3.67625 0 0 Z " fill="#E0E1E6" transform="translate(13,27)"/>
<path d="M0 0 C0.66 0 1.32 0 2 0 C1.67 2.31 1.34 4.62 1 7 C1.99 7 2.98 7 4 7 C4.02505615 7.65073486 4.0501123 8.30146973 4.07592773 8.97192383 C4.19193702 11.91898046 4.31464115 14.8657213 4.4375 17.8125 C4.47681641 18.83666016 4.51613281 19.86082031 4.55664062 20.91601562 C4.59853516 21.89892578 4.64042969 22.88183594 4.68359375 23.89453125 C4.72025146 24.80050049 4.75690918 25.70646973 4.79467773 26.63989258 C4.9208205 29.15048782 4.9208205 29.15048782 6 32 C10.23580253 32.07407906 14.47126341 32.12856696 18.70751953 32.16479492 C20.14899258 32.17989483 21.59041959 32.20037658 23.03173828 32.22631836 C25.10200343 32.2626513 27.17166207 32.27971329 29.2421875 32.29296875 C30.4885498 32.3086792 31.73491211 32.32438965 33.01904297 32.34057617 C34.00275879 32.22818604 34.98647461 32.1157959 36 32 C36.66 31.01 37.32 30.02 38 29 C38.66 29 39.32 29 40 29 C40 21.74 40 14.48 40 7 C40.33 7 40.66 7 41 7 C41.19739706 11.06208241 41.38118364 15.12467055 41.5625 19.1875 C41.64661133 20.91323242 41.64661133 20.91323242 41.73242188 22.67382812 C41.78076172 23.78564453 41.82910156 24.89746094 41.87890625 26.04296875 C41.9260376 27.06414795 41.97316895 28.08532715 42.02172852 29.13745117 C42.00073689 31.90292045 41.64017052 34.31645691 41 37 C36.08879777 37.12373184 31.17850515 37.21439824 26.26611328 37.2746582 C24.59570511 37.29978078 22.92540663 37.33388552 21.25537109 37.37719727 C18.8522638 37.43795399 16.45061096 37.46623021 14.046875 37.48828125 C13.30193787 37.51408768 12.55700073 37.5398941 11.78948975 37.56648254 C8.07438963 37.56848565 6.38034166 37.35476427 3.62207031 34.78198242 C0.73818408 29.83588314 -0.24989258 26.3636675 -0.1953125 20.60546875 C-0.18886719 19.40341797 -0.18242187 18.20136719 -0.17578125 16.96289062 C-0.15902344 15.71701172 -0.14226563 14.47113281 -0.125 13.1875 C-0.11597656 11.92228516 -0.10695313 10.65707031 -0.09765625 9.35351562 C-0.07412394 6.23548436 -0.04124545 3.11783903 0 0 Z " fill="#4E5060" transform="translate(9,20)"/>
<path d="M0 0 C0.97453125 0.00902344 1.9490625 0.01804687 2.953125 0.02734375 C5.34400728 0.05078377 7.73437261 0.08359558 10.125 0.125 C10.125 0.785 10.125 1.445 10.125 2.125 C11.775 2.125 13.425 2.125 15.125 2.125 C15.62 4.6 15.62 4.6 16.125 7.125 C4.905 7.125 -6.315 7.125 -17.875 7.125 C-17.545 5.475 -17.215 3.825 -16.875 2.125 C-11.24066322 -0.28429552 -6.0060889 -0.10579831 0 0 Z " fill="#BABBC4" transform="translate(31.875,15.875)"/>
<path d="M0 0 C0.33 0 0.66 0 1 0 C1 2.31 1 4.62 1 7 C12.88 7 24.76 7 37 7 C37.33 5.02 37.66 3.04 38 1 C38.495 2.485 38.495 2.485 39 4 C39.66 4 40.32 4 41 4 C41.02903892 8.08331839 41.04681189 12.1666102 41.0625 16.25 C41.07087891 17.40886719 41.07925781 18.56773438 41.08789062 19.76171875 C41.09111328 20.87675781 41.09433594 21.99179687 41.09765625 23.140625 C41.10289307 24.16704102 41.10812988 25.19345703 41.11352539 26.25097656 C41.01336951 28.67625656 40.69923078 30.68697361 40 33 C39.34 33 38.68 33 38 33 C38 25.08 38 17.16 38 9 C24.8 9 11.6 9 -2 9 C-1 1 -1 1 0 0 Z " fill="#4E4F5F" transform="translate(12,18)"/>
<path d="M0 0 C7.59 0 15.18 0 23 0 C23 0.99 23 1.98 23 3 C16.37902966 6.78341162 9.49095796 6.72462784 2 6 C1.01 5.34 0.02 4.68 -1 4 C-0.67 2.68 -0.34 1.36 0 0 Z " fill="#B4B5BE" transform="translate(20,42)"/>
<path d="M0 0 C0.33 0 0.66 0 1 0 C1.19739706 4.06208241 1.38118364 8.12467055 1.5625 12.1875 C1.64661133 13.91323242 1.64661133 13.91323242 1.73242188 15.67382812 C1.78076172 16.78564453 1.82910156 17.89746094 1.87890625 19.04296875 C1.9260376 20.06414795 1.97316895 21.08532715 2.02172852 22.13745117 C2.00073689 24.90292045 1.64017052 27.31645691 1 30 C-3.94788314 30.07404737 -8.89544524 30.12855246 -13.84375 30.16479492 C-15.5277264 30.17990003 -17.21166335 30.20038546 -18.89550781 30.22631836 C-21.31324993 30.26262721 -23.73047292 30.27970847 -26.1484375 30.29296875 C-26.9036972 30.30845261 -27.65895691 30.32393646 -28.43710327 30.33988953 C-30.56005859 30.34057617 -30.56005859 30.34057617 -34 30 C-34.66 29.01 -35.32 28.02 -36 27 C-35.01 27.33 -34.02 27.66 -33 28 C-30.86338742 28.15070797 -28.72287876 28.2485966 -26.58203125 28.31640625 C-25.32841797 28.35830078 -24.07480469 28.40019531 -22.78320312 28.44335938 C-21.47287109 28.48267578 -20.16253906 28.52199219 -18.8125 28.5625 C-17.47720022 28.60570992 -16.14191348 28.649325 -14.80664062 28.69335938 C-11.53786703 28.79956502 -8.26901667 28.90160997 -5 29 C-5 28.34 -5 27.68 -5 27 C-12.92 27 -20.84 27 -29 27 C-29 26.67 -29 26.34 -29 26 C-27.87972412 25.97812622 -27.87972412 25.97812622 -26.73681641 25.95581055 C-23.36567748 25.88152054 -19.99554995 25.78479801 -16.625 25.6875 C-15.449375 25.66494141 -14.27375 25.64238281 -13.0625 25.61914062 C-11.94101562 25.58369141 -10.81953125 25.54824219 -9.6640625 25.51171875 C-8.10872803 25.47244263 -8.10872803 25.47244263 -6.52197266 25.43237305 C-5.68972168 25.28968994 -4.8574707 25.14700684 -4 25 C-3.34 24.01 -2.68 23.02 -2 22 C-1.34 22 -0.68 22 0 22 C0 14.74 0 7.48 0 0 Z " fill="#666977" transform="translate(49,27)"/>
<path d="M0 0 C0.99 0 1.98 0 3 0 C5.25 2.3125 5.25 2.3125 7 5 C6.67 5.99 6.34 6.98 6 8 C3.03 7.505 3.03 7.505 0 7 C0 6.34 0 5.68 0 5 C-7.92 5.33 -15.84 5.66 -24 6 C-24 4.68 -24 3.36 -24 2 C-16.08 2 -8.16 2 0 2 C0 1.34 0 0.68 0 0 Z " fill="#36394A" transform="translate(42,11)"/>
<path d="M0 0 C0.99457718 0.00212242 0.99457718 0.00212242 2.00924683 0.00428772 C4.12860613 0.00988871 6.24786009 0.02244125 8.3671875 0.03515625 C9.80338389 0.04017113 11.23958194 0.04473406 12.67578125 0.04882812 C16.19795095 0.05985843 19.72005895 0.07712366 23.2421875 0.09765625 C23.2421875 0.75765625 23.2421875 1.41765625 23.2421875 2.09765625 C19.82467097 3.23682843 17.20730813 3.21104106 13.60546875 3.1953125 C12.30673828 3.19208984 11.00800781 3.18886719 9.66992188 3.18554688 C8.29817642 3.17719156 6.92643163 3.16872662 5.5546875 3.16015625 C4.17122555 3.1551396 2.78776187 3.15057698 1.40429688 3.14648438 C-1.98311645 3.13468154 -5.37044283 3.11821644 -8.7578125 3.09765625 C-8.7578125 2.43765625 -8.7578125 1.77765625 -8.7578125 1.09765625 C-5.8358356 -0.3633322 -3.25887775 -0.01369276 0 0 Z " fill="#E9E9EE" transform="translate(22.7578125,18.90234375)"/>
<path d="M0 0 C0.99 0 1.98 0 3 0 C4.90079664 4.01535068 5.23570807 7.18996591 5.1953125 11.61328125 C5.18886719 12.86044922 5.18242188 14.10761719 5.17578125 15.39257812 C5.15902344 16.68615234 5.14226563 17.97972656 5.125 19.3125 C5.11597656 20.62541016 5.10695313 21.93832031 5.09765625 23.29101562 C5.07411797 26.52752913 5.0412352 29.76367149 5 33 C4.34 33 3.68 33 3 33 C2.67 33.66 2.34 34.32 2 35 C2.01047363 34.1529248 2.02094727 33.30584961 2.03173828 32.43310547 C2.06597061 29.26856503 2.09097201 26.10411948 2.10986328 22.93945312 C2.1198759 21.5738615 2.13349005 20.20829106 2.15087891 18.84277344 C2.17533573 16.87184088 2.1854572 14.90074716 2.1953125 12.9296875 C2.20578613 11.74616699 2.21625977 10.56264648 2.22705078 9.34326172 C1.99409659 5.91307389 1.23025564 3.19696189 0 0 Z " fill="#C0C0C9" transform="translate(50,16)"/>
<path d="M0 0 C13.365 0.495 13.365 0.495 27 1 C27 1.66 27 2.32 27 3 C26.26362305 2.98952637 25.52724609 2.97905273 24.76855469 2.96826172 C21.42907124 2.92666298 18.08964235 2.90066136 14.75 2.875 C13.59113281 2.85824219 12.43226562 2.84148438 11.23828125 2.82421875 C10.12324219 2.81777344 9.00820313 2.81132812 7.859375 2.8046875 C6.83295898 2.79421387 5.80654297 2.78374023 4.74902344 2.77294922 C1.98015712 3.00163889 0.35581208 3.5756701 -2 5 C-2 4.01 -2 3.02 -2 2 C-1.34 2 -0.68 2 0 2 C0 1.34 0 0.68 0 0 Z " fill="#C0C5CB" transform="translate(15,10)"/>
<path d="M0 0 C0.33 0 0.66 0 1 0 C1 2.31 1 4.62 1 7 C12.88 7 24.76 7 37 7 C37 7.33 37 7.66 37 8 C24.13 8.33 11.26 8.66 -2 9 C-1 1 -1 1 0 0 Z " fill="#343649" transform="translate(12,18)"/>
<path d="M0 0 C0.99 0 1.98 0 3 0 C5.25 2.3125 5.25 2.3125 7 5 C6.67 5.99 6.34 6.98 6 8 C3.03 7.505 3.03 7.505 0 7 C0 6.34 0 5.68 0 5 C-10.89 5.495 -10.89 5.495 -22 6 C-22 5.34 -22 4.68 -22 4 C-14.08 4 -6.16 4 2 4 C1.34 2.68 0.68 1.36 0 0 Z " fill="#4D5060" transform="translate(42,11)"/>
<path d="M0 0 C4.29 0 8.58 0 13 0 C13 1.32 13 2.64 13 4 C9.04 4 5.08 4 1 4 C0.67 2.68 0.34 1.36 0 0 Z " fill="#646674" transform="translate(28,34)"/>
<path d="M0 0 C0.495 1.98 0.495 1.98 1 4 C-3.94788314 4.07404737 -8.89544524 4.12855246 -13.84375 4.16479492 C-15.5277264 4.17990003 -17.21166335 4.20038546 -18.89550781 4.22631836 C-21.31324993 4.26262721 -23.73047292 4.27970847 -26.1484375 4.29296875 C-26.9036972 4.30845261 -27.65895691 4.32393646 -28.43710327 4.33988953 C-30.56005859 4.34057617 -30.56005859 4.34057617 -34 4 C-34.66 3.01 -35.32 2.02 -36 1 C-35.01 1.33 -34.02 1.66 -33 2 C-28.70921543 2.20456866 -24.41615522 2.18580263 -20.12109375 2.18530273 C-18.00760855 2.18749212 -15.8946431 2.20566952 -13.78125 2.22460938 C-12.43750178 2.22754302 -11.09375109 2.22952801 -9.75 2.23046875 C-7.91695312 2.23663208 -7.91695312 2.23663208 -6.046875 2.24291992 C-2.82484192 2.23481878 -2.82484192 2.23481878 0 0 Z " fill="#989AA4" transform="translate(49,53)"/>
<path d="M0 0 C4.29 0 8.58 0 13 0 C12.67 0.99 12.34 1.98 12 3 C8.04 3 4.08 3 0 3 C0 2.01 0 1.02 0 0 Z " fill="#545665" transform="translate(22,43)"/>
<path d="M0 0 C2.97 0 5.94 0 9 0 C9 0.99 9 1.98 9 3 C4.545 4.485 4.545 4.485 0 6 C0 4.02 0 2.04 0 0 Z " fill="#BEC1C8" transform="translate(34,42)"/>
<path d="M0 0 C8.91 0 17.82 0 27 0 C27.33 1.65 27.66 3.3 28 5 C27.01 4.34 26.02 3.68 25 3 C25 2.34 25 1.68 25 1 C16.75 1 8.5 1 0 1 C0 0.67 0 0.34 0 0 Z " fill="#D5D7DD" transform="translate(20,10)"/>
<path d="M0 0 C1.65 0 3.3 0 5 0 C5 1.98 5 3.96 5 6 C3.35 6 1.7 6 0 6 C0 4.02 0 2.04 0 0 Z " fill="#B0B1BB" transform="translate(20,33)"/>
<path d="M0 0 C1.65 0 3.3 0 5 0 C5 0.66 5 1.32 5 2 C0.61538462 5 0.61538462 5 -2 5 C-2 4.01 -2 3.02 -2 2 C-1.34 2 -0.68 2 0 2 C0 1.34 0 0.68 0 0 Z " fill="#B0B3BC" transform="translate(15,10)"/>
</svg>
