<?xml version="1.0" encoding="UTF-8"?>
<svg version="1.1" xmlns="http://www.w3.org/2000/svg" width="142" height="42">
<path d="M0 0 C46.86 0 93.72 0 142 0 C142 13.86 142 27.72 142 42 C95.14 42 48.28 42 0 42 C0 28.14 0 14.28 0 0 Z " fill="#FCFCFC" transform="translate(0,0)"/>
<path d="M0 0 C1.25554687 -0.00128906 2.51109375 -0.00257812 3.8046875 -0.00390625 C4.46178711 -0.00181152 5.11888672 0.0002832 5.79589844 0.00244141 C7.80411335 0.00779016 9.81210459 0.00249559 11.8203125 -0.00390625 C13.07585937 -0.00261719 14.33140625 -0.00132813 15.625 0 C16.78644531 0.00112793 17.94789062 0.00225586 19.14453125 0.00341797 C21.8125 0.1328125 21.8125 0.1328125 22.8125 1.1328125 C22.88455511 2.81890216 22.89636068 4.50781909 22.875 6.1953125 C22.86597656 7.11441406 22.85695313 8.03351562 22.84765625 8.98046875 C22.83605469 9.69074219 22.82445313 10.40101562 22.8125 11.1328125 C22.1525 11.1328125 21.4925 11.1328125 20.8125 11.1328125 C20.8125 11.7928125 20.8125 12.4528125 20.8125 13.1328125 C16.52088953 13.19065092 12.22937855 13.2263537 7.9375 13.2578125 C6.71417969 13.27457031 5.49085937 13.29132812 4.23046875 13.30859375 C2.48056641 13.31826172 2.48056641 13.31826172 0.6953125 13.328125 C-0.38347168 13.33859863 -1.46225586 13.34907227 -2.57373047 13.35986328 C-5.1875 13.1328125 -5.1875 13.1328125 -7.1875 11.1328125 C-7.41796875 8.78515625 -7.41796875 8.78515625 -7.375 6.0703125 C-7.36855469 5.17183594 -7.36210938 4.27335937 -7.35546875 3.34765625 C-7.01115054 -1.19253962 -3.8915861 0.00377929 0 0 Z " fill="#0E0E0E" transform="translate(97.1875,15.8671875)"/>
<path d="M0 0 C1.27294922 -0.00515625 2.54589844 -0.0103125 3.85742188 -0.015625 C4.51782471 -0.00724609 5.17822754 0.00113281 5.85864258 0.00976562 C7.86988473 0.03115406 9.87754149 0.00997255 11.88867188 -0.015625 C13.16291016 -0.01046875 14.43714844 -0.0053125 15.75 0 C17.49494751 0.00676758 17.49494751 0.00676758 19.27514648 0.01367188 C23.07281574 0.63446444 24.7198967 1.86102016 27.44140625 4.53125 C29.21769493 7.914657 29.44140625 9.62059069 29.44140625 13.53125 C26.3316306 19.19548423 26.3316306 19.19548423 23.68334961 20.19433594 C18.50565444 20.97242799 13.22804402 20.75938024 8.00390625 20.78125 C6.77607422 20.801875 5.54824219 20.8225 4.28320312 20.84375 C3.09919922 20.84890625 1.91519531 20.8540625 0.6953125 20.859375 C-0.38419678 20.8687207 -1.46370605 20.87806641 -2.57592773 20.88769531 C-5.98196601 20.48065464 -7.8580011 19.62635751 -10.55859375 17.53125 C-11.1875 14.53515625 -11.1875 14.53515625 -11.12109375 11.09375 C-11.12238281 9.96066406 -11.12367187 8.82757813 -11.125 7.66015625 C-9.9441868 1.13718124 -6.1414798 0.02384214 0 0 Z M-6.55859375 5.53125 C-6.68314235 7.17355364 -6.73427899 8.82177276 -6.74609375 10.46875 C-6.76027344 11.36464844 -6.77445312 12.26054687 -6.7890625 13.18359375 C-6.79054144 15.72239534 -6.79054144 15.72239534 -4.55859375 17.53125 C-1.8392504 17.80969932 -1.8392504 17.80969932 1.32421875 17.7265625 C2.49082031 17.72011719 3.65742187 17.71367187 4.859375 17.70703125 C6.08269531 17.69027344 7.30601563 17.67351563 8.56640625 17.65625 C10.41298828 17.64271484 10.41298828 17.64271484 12.296875 17.62890625 C15.3452444 17.60527548 18.39323007 17.57233054 21.44140625 17.53125 C21.44140625 16.87125 21.44140625 16.21125 21.44140625 15.53125 C22.10140625 15.53125 22.76140625 15.53125 23.44140625 15.53125 C23.46828776 13.88550434 23.48774748 12.23963587 23.50390625 10.59375 C23.51550781 9.67722656 23.52710937 8.76070312 23.5390625 7.81640625 C23.70089674 5.56531673 23.70089674 5.56531673 22.44140625 4.53125 C20.38085315 4.43131468 18.31688035 4.40044094 16.25390625 4.3984375 C14.99835938 4.39714844 13.7428125 4.39585938 12.44921875 4.39453125 C11.46356934 4.39767334 11.46356934 4.39767334 10.45800781 4.40087891 C8.4497929 4.40622766 6.44180166 4.40093309 4.43359375 4.39453125 C3.17804688 4.39582031 1.9225 4.39710937 0.62890625 4.3984375 C-0.53253906 4.39956543 -1.69398437 4.40069336 -2.890625 4.40185547 C-5.47922659 4.22787526 -5.47922659 4.22787526 -6.55859375 5.53125 Z " fill="#C1C1C1" transform="translate(96.55859375,11.46875)"/>
<path d="M0 0 C0 0.66 0 1.32 0 2 C0.66 2 1.32 2 2 2 C1.67 3.32 1.34 4.64 1 6 C0.01 6 -0.98 6 -2 6 C-2 6.99 -2 7.98 -2 9 C-3.32 9.33 -4.64 9.66 -6 10 C-6 10.99 -6 11.98 -6 13 C-9 15 -9 15 -11.0625 14.6875 C-13 14 -13 14 -15 13 C-15 12.01 -15 11.02 -15 10 C-16.32 9.34 -17.64 8.68 -19 8 C-19 7.34 -19 6.68 -19 6 C-19.99 6 -20.98 6 -22 6 C-22.33 4.68 -22.66 3.36 -23 2 C-14.92849578 -2.80855571 -8.89633513 -2.96544504 0 0 Z " fill="#707070" transform="translate(74,15)"/>
<path d="M0 0 C1.65 0 3.3 0 5 0 C5 4.62 5 9.24 5 14 C2.03 13.505 2.03 13.505 -1 13 C-1 13.66 -1 14.32 -1 15 C-2.65 15 -4.3 15 -6 15 C-6 11.37 -6 7.74 -6 4 C-4.02 4 -2.04 4 0 4 C0 2.68 0 1.36 0 0 Z " fill="#A6A6A6" transform="translate(27,16)"/>
<path d="M0 0 C1.94326172 0.01933594 1.94326172 0.01933594 3.92578125 0.0390625 C5.28907324 0.07248134 6.65235449 0.10634109 8.015625 0.140625 C9.39450564 0.16069793 10.77341412 0.17894733 12.15234375 0.1953125 C15.52414244 0.24247052 18.89453187 0.30827962 22.265625 0.390625 C21.935625 1.380625 21.605625 2.370625 21.265625 3.390625 C11.695625 3.390625 2.125625 3.390625 -7.734375 3.390625 C-7.734375 7.350625 -7.734375 11.310625 -7.734375 15.390625 C-8.394375 16.380625 -9.054375 17.370625 -9.734375 18.390625 C-11.60023454 16.52476546 -10.99403563 13.57826129 -11.046875 11.078125 C-11.08425781 9.92699219 -11.12164062 8.77585937 -11.16015625 7.58984375 C-10.734375 4.390625 -10.734375 4.390625 -9.12866211 2.21508789 C-5.93566404 -0.21799813 -3.98432503 -0.06990044 0 0 Z " fill="#D9D9D9" transform="translate(96.734375,11.609375)"/>
<path d="M0 0 C1.79715454 0.00616333 1.79715454 0.00616333 3.63061523 0.01245117 C4.92805664 0.01438477 6.22549805 0.01631836 7.56225586 0.01831055 C8.23893311 0.02451416 8.91561035 0.03071777 9.61279297 0.03710938 C11.68461369 0.0553794 13.75598795 0.05761897 15.82788086 0.05737305 C25.98662641 0.10283735 25.98662641 0.10283735 27.12670898 1.24291992 C27.19929844 3.42931445 27.21044681 5.61792381 27.18920898 7.80541992 C27.18018555 9.00295898 27.17116211 10.20049805 27.16186523 11.43432617 C27.15026367 12.36116211 27.13866211 13.28799805 27.12670898 14.24291992 C26.79670898 14.24291992 26.46670898 14.24291992 26.12670898 14.24291992 C25.63170898 9.29291992 25.63170898 9.29291992 25.12670898 4.24291992 C15.88670898 4.24291992 6.64670898 4.24291992 -2.87329102 4.24291992 C-2.87329102 7.87291992 -2.87329102 11.50291992 -2.87329102 15.24291992 C-3.53329102 15.90291992 -4.19329102 16.56291992 -4.87329102 17.24291992 C-4.9271295 14.78429591 -4.9668814 12.32684442 -4.99829102 9.86791992 C-5.01504883 9.16924805 -5.03180664 8.47057617 -5.04907227 7.75073242 C-5.06673368 5.91394506 -4.97632362 4.0769003 -4.87329102 2.24291992 C-2.87329102 0.24291992 -2.87329102 0.24291992 0 0 Z " fill="#AAAAAA" transform="translate(93.873291015625,12.757080078125)"/>
<path d="M0 0 C2.74050355 1.69266396 3.24570962 3.2749514 4.125 6.3125 C3.42503906 5.98765625 2.72507812 5.6628125 2.00390625 5.328125 C-1.15737191 4.2128844 -3.59507687 4.04559773 -6.9375 4.0625 C-8.47083984 4.05476563 -8.47083984 4.05476563 -10.03515625 4.046875 C-12.86149903 4.31123719 -14.40790249 5.01576278 -16.875 6.3125 C-17.535 5.9825 -18.195 5.6525 -18.875 5.3125 C-17.875 2.3125 -17.875 2.3125 -14.8125 0.625 C-9.79530337 -1.33242784 -5.25262876 -1.2560634 0 0 Z " fill="#292929" transform="translate(69.875,13.6875)"/>
<path d="M0 0 C0.99 0.33 1.98 0.66 3 1 C3 1.66 3 2.32 3 3 C3.66 3 4.32 3 5 3 C4.67 4.32 4.34 5.64 4 7 C3.01 7 2.02 7 1 7 C1 7.99 1 8.98 1 10 C0.34 9.67 -0.32 9.34 -1 9 C-0.67 8.34 -0.34 7.68 0 7 C-1.7699868 6.80467039 -3.54104279 6.61901118 -5.3125 6.4375 C-6.29863281 6.33308594 -7.28476562 6.22867187 -8.30078125 6.12109375 C-11.09930347 5.83397473 -11.09930347 5.83397473 -14 7 C-13.484375 7.4125 -12.96875 7.825 -12.4375 8.25 C-11.963125 8.8275 -11.48875 9.405 -11 10 C-11.3125 12.1875 -11.3125 12.1875 -12 14 C-12 13.01 -12 12.02 -12 11 C-13.32 10.34 -14.64 9.68 -16 9 C-16 8.34 -16 7.68 -16 7 C-16.99 7 -17.98 7 -19 7 C-17.69427288 4.38854577 -16.7096935 4.03902099 -14 3 C-11.125 2.76953125 -11.125 2.76953125 -8 2.8125 C-6.453125 2.82216797 -6.453125 2.82216797 -4.875 2.83203125 C-2.41931318 2.97550208 -0.34492245 3.2953959 2 4 C1.34 2.68 0.68 1.36 0 0 Z " fill="#9D9D9D" transform="translate(71,14)"/>
<path d="M0 0 C1.32 0 2.64 0 4 0 C4 4.95 4 9.9 4 15 C2.68 15.33 1.36 15.66 0 16 C0 10.72 0 5.44 0 0 Z " fill="#242424" transform="translate(36,14)"/>
<path d="M0 0 C3.37331354 2.24887569 3.8358179 3.2387963 5 7 C5 11.71906188 3.71245796 13.27037031 1 17 C0.34 16.67 -0.32 16.34 -1 16 C-0.67 10.72 -0.34 5.44 0 0 Z " fill="#D1D1D1" transform="translate(121,14)"/>
<path d="M0 0 C0.99 0 1.98 0 3 0 C3 4.62 3 9.24 3 14 C2.01 14 1.02 14 0 14 C0 9.38 0 4.76 0 0 Z " fill="#131313" transform="translate(29,16)"/>
<path d="M0 0 C9.25401683 -0.31369549 9.25401683 -0.31369549 13 2 C14.3125 4.625 14.3125 4.625 15 7 C14.34 6.690625 13.68 6.38125 13 6.0625 C9.29523985 4.75039745 5.90736009 4.39735865 2 4 C3.32 3.34 4.64 2.68 6 2 C3.03 1.505 3.03 1.505 0 1 C0 0.67 0 0.34 0 0 Z " fill="#464646" transform="translate(59,13)"/>
<path d="M0 0 C1.98 0 3.96 0 6 0 C6 2.31 6 4.62 6 7 C4.35 7 2.7 7 1 7 C0.67 4.69 0.34 2.38 0 0 Z " fill="#A6A6A6" transform="translate(13,24)"/>
<path d="M0 0 C0.80824219 0.11085938 1.61648437 0.22171875 2.44921875 0.3359375 C3.37154297 0.47902344 3.37154297 0.47902344 4.3125 0.625 C4.3125 1.615 4.3125 2.605 4.3125 3.625 C0.3125 3.625 -3.6875 3.625 -7.6875 3.625 C-7.6875 2.965 -7.6875 2.305 -7.6875 1.625 C-4.33422361 -0.61051759 -3.78006343 -0.54783528 0 0 Z " fill="#151515" transform="translate(64.6875,19.375)"/>
<path d="M0 0 C0.99 0.33 1.98 0.66 3 1 C3 1.66 3 2.32 3 3 C3.66 3 4.32 3 5 3 C4.67 4.32 4.34 5.64 4 7 C3.01 7 2.02 7 1 7 C1 7.99 1 8.98 1 10 C0.34 9.67 -0.32 9.34 -1 9 C-0.67 8.34 -0.34 7.68 0 7 C-1.65 6.67 -3.3 6.34 -5 6 C-2.35261084 4.5393715 -1.10551666 4 2 4 C1.34 2.68 0.68 1.36 0 0 Z " fill="#898989" transform="translate(71,14)"/>
<path d="M0 0 C0.99 0 1.98 0 3 0 C3 2.97 3 5.94 3 9 C2.01 9 1.02 9 0 9 C0 6.03 0 3.06 0 0 Z " fill="#191919" transform="translate(22,21)"/>
<path d="M0 0 C1.32 0 2.64 0 4 0 C4 1.65 4 3.3 4 5 C2.68 4.67 1.36 4.34 0 4 C0 2.68 0 1.36 0 0 Z " fill="#383838" transform="translate(14,25)"/>
<path d="M0 0 C2.31 0.33 4.62 0.66 7 1 C7.33 2.32 7.66 3.64 8 5 C1.125 2.25 1.125 2.25 0 0 Z " fill="#1A1A1A" transform="translate(66,15)"/>
</svg>
