<?xml version="1.0" encoding="UTF-8"?>
<svg version="1.1" xmlns="http://www.w3.org/2000/svg" width="67" height="70">
<path d="M0 0 C22.11 0 44.22 0 67 0 C67 23.1 67 46.2 67 70 C44.89 70 22.78 70 0 70 C0 46.9 0 23.8 0 0 Z " fill="#EEEEF3" transform="translate(0,0)"/>
<path d="M0 0 C0.72058594 0.26296875 1.44117187 0.5259375 2.18359375 0.796875 C7.02106149 2.8425286 10.65177258 4.78771389 14 9 C14 9.99 14 10.98 14 12 C14.66 12 15.32 12 16 12 C15.97679687 12.67546875 15.95359375 13.3509375 15.9296875 14.046875 C15.91164062 14.93890625 15.89359375 15.8309375 15.875 16.75 C15.85179687 17.63171875 15.82859375 18.5134375 15.8046875 19.421875 C16.00860498 22.1135858 16.63448279 23.69904974 18 26 C17.278125 26.2475 16.55625 26.495 15.8125 26.75 C10.65932702 29.0402991 6.79516671 32.88856939 3 37 C2.67 37.99 2.34 38.98 2 40 C-3.61 40 -9.22 40 -15 40 C-15.66 41.32 -16.32 42.64 -17 44 C-18.65 44 -20.3 44 -22 44 C-22 42.02 -22 40.04 -22 38 C-23.98 38 -25.96 38 -28 38 C-28.125 32.25 -28.125 32.25 -27 30 C-26.01 30 -25.02 30 -24 30 C-24.185625 29.01 -24.37125 28.02 -24.5625 27 C-25.17661683 22.82912322 -24.65520905 19.14965731 -24 15 C-23.01 14.67 -22.02 14.34 -21 14 C-21 12.35 -21 10.7 -21 9 C-20.34 9 -19.68 9 -19 9 C-19 8.34 -19 7.68 -19 7 C-18.360625 6.71125 -17.72125 6.4225 -17.0625 6.125 C-14.84793921 5.17176549 -14.84793921 5.17176549 -14 3 C-11.85546875 1.89453125 -11.85546875 1.89453125 -9.1875 0.8125 C-8.31480469 0.44769531 -7.44210938 0.08289063 -6.54296875 -0.29296875 C-3.75375085 -1.06846559 -2.67076055 -0.9881814 0 0 Z " fill="#C2C4CB" transform="translate(39,16)"/>
<path d="M0 0 C4.00498923 0.1064672 6.98597507 0.42775643 10.24584961 2.82373047 C12.80834961 6.44873047 12.80834961 6.44873047 12.80834961 16.44873047 C3.56834961 16.44873047 -5.67165039 16.44873047 -15.19165039 16.44873047 C-15.19165039 11.99483714 -14.70224767 9.50846067 -13.19165039 5.44873047 C-12.53165039 5.44873047 -11.87165039 5.44873047 -11.19165039 5.44873047 C-11.04727539 4.80935547 -10.90290039 4.16998047 -10.75415039 3.51123047 C-9.42040368 -1.37917414 -4.33444238 0.02355397 0 0 Z " fill="#EBECF1" transform="translate(37.191650390625,21.55126953125)"/>
<path d="M0 0 C13.2 0 26.4 0 40 0 C40 0.66 40 1.32 40 2 C39.278125 2.2475 38.55625 2.495 37.8125 2.75 C33.59103012 4.62620884 30.67005959 7.29643743 27.5 10.625 C22.90912702 14.98632933 18.8887962 15.24091208 12.6875 15.125 C11.43324219 15.10695313 10.17898437 15.08890625 8.88671875 15.0703125 C7.93410156 15.04710937 6.98148438 15.02390625 6 15 C5.34 16.32 4.68 17.64 4 19 C3.34 19 2.68 19 2 19 C2.55111692 15.14218158 3.91362497 13.35336096 7 11 C9.90925748 10.37141107 12.78083503 10.30416387 15.75 10.25 C16.54277344 10.22035156 17.33554687 10.19070312 18.15234375 10.16015625 C20.10102094 10.08972213 22.05051495 10.04256518 24 10 C24 9.34 24 8.68 24 8 C24.99 7.34 25.98 6.68 27 6 C26.67 5.67 26.34 5.34 26 5 C25.38125 5.495 24.7625 5.99 24.125 6.5 C19.73970259 8.60494276 15.78286739 8.25075227 11 8 C11 6.68 11 5.36 11 4 C12.32 4 13.64 4 15 4 C15 3.34 15 2.68 15 2 C12.66404762 2.31445513 10.33094534 2.6503582 8 3 C6.8553125 3.1546875 6.8553125 3.1546875 5.6875 3.3125 C3.29169899 4.28856708 3.09339365 5.68457816 2 8 C-0.5 10.75 -0.5 10.75 -3 13 C-3.66 13 -4.32 13 -5 13 C-5 11.68 -5 10.36 -5 9 C-4.01 9 -3.02 9 -2 9 C-2 8.34 -2 7.68 -2 7 C-1.34 7 -0.68 7 0 7 C0 4.69 0 2.38 0 0 Z " fill="#2D2F41" transform="translate(17,40)"/>
<path d="M0 0 C0.72058594 0.26296875 1.44117187 0.5259375 2.18359375 0.796875 C7.02106149 2.8425286 10.65177258 4.78771389 14 9 C14 9.99 14 10.98 14 12 C14.66 12 15.32 12 16 12 C16 15.3 16 18.6 16 22 C14.68 21.67 13.36 21.34 12 21 C11.92523438 20.40832031 11.85046875 19.81664063 11.7734375 19.20703125 C11.01651488 14.6580747 10.21566641 10.67378773 6.25 7.80859375 C0.9091342 5.8892201 -5.45844234 6.22765747 -11 7 C-12.82431677 8.4203518 -12.82431677 8.4203518 -14 10 C-14.66 10 -15.32 10 -16 10 C-16.99 13.3 -17.98 16.6 -19 20 C-19.33 20 -19.66 20 -20 20 C-20.42529847 13.83317222 -19.96319543 11.01227657 -16 6 C-15.34 5.01 -14.68 4.02 -14 3 C-11.7578125 1.796875 -11.7578125 1.796875 -9.125 0.75 C-8.26132812 0.39421875 -7.39765625 0.0384375 -6.5078125 -0.328125 C-3.74907509 -1.06722599 -2.64051849 -0.96977126 0 0 Z " fill="#797B88" transform="translate(39,16)"/>
<path d="M0 0 C0.66 0.33 1.32 0.66 2 1 C1.67 1.556875 1.34 2.11375 1 2.6875 C-0.1309601 5.30284522 -0.15662974 7.1806646 0 10 C0.6496875 8.2984375 0.6496875 8.2984375 1.3125 6.5625 C1.869375 5.386875 2.42625 4.21125 3 3 C3.99 2.67 4.98 2.34 6 2 C6 2.66 6 3.32 6 4 C5.34 4 4.68 4 4 4 C4.061875 5.051875 4.061875 5.051875 4.125 6.125 C4 9 4 9 2 15 C11.24 15 20.48 15 30 15 C30 13.35 30 11.7 30 10 C30.2475 10.598125 30.495 11.19625 30.75 11.8125 C32.07752171 14.4715904 32.07752171 14.4715904 36 17 C23.13 17 10.26 17 -3 17 C-2.67 18.32 -2.34 19.64 -2 21 C-2.33 21.99 -2.66 22.98 -3 24 C-3.66 24 -4.32 24 -5 24 C-5 24.66 -5 25.32 -5 26 C-5.66 25.67 -6.32 25.34 -7 25 C-6.7834375 23.8553125 -6.7834375 23.8553125 -6.5625 22.6875 C-5.81832264 17.80900396 -5.41114251 12.91621465 -5 8 C-4.01 7.67 -3.02 7.34 -2 7 C-2 5.35 -2 3.7 -2 2 C-1.34 2 -0.68 2 0 2 C0 1.34 0 0.68 0 0 Z " fill="#A9ACB4" transform="translate(20,23)"/>
<path d="M0 0 C0.495 0.99 0.495 0.99 1 2 C0.278125 2.2475 -0.44375 2.495 -1.1875 2.75 C-5.40896988 4.62620884 -8.32994041 7.29643743 -11.5 10.625 C-16.09087298 14.98632933 -20.1112038 15.24091208 -26.3125 15.125 C-27.56675781 15.10695313 -28.82101563 15.08890625 -30.11328125 15.0703125 C-31.06589844 15.04710937 -32.01851562 15.02390625 -33 15 C-33.66 16.32 -34.32 17.64 -35 19 C-35.66 19 -36.32 19 -37 19 C-36.44888308 15.14218158 -35.08637503 13.35336096 -32 11 C-29.09074252 10.37141107 -26.21916497 10.30416387 -23.25 10.25 C-22.45722656 10.22035156 -21.66445313 10.19070312 -20.84765625 10.16015625 C-18.89897906 10.08972213 -16.94948505 10.04256518 -15 10 C-15 9.34 -15 8.68 -15 8 C-14.01 7.34 -13.02 6.68 -12 6 C-13.05270463 4.84188612 -13.05270463 4.84188612 -15 4 C-14.34 3.34 -13.68 2.68 -13 2 C-11.68 2 -10.36 2 -9 2 C-9 2.66 -9 3.32 -9 4 C-8.2575 3.525625 -7.515 3.05125 -6.75 2.5625 C-4.38949985 1.22130673 -2.63351523 0.487688 0 0 Z " fill="#5A5C6B" transform="translate(56,40)"/>
<path d="M0 0 C3.36295835 1.44126786 5.62927102 3.20592655 8 6 C8 6.99 8 7.98 8 9 C8.66 9 9.32 9 10 9 C10 12.3 10 15.6 10 19 C8.68 18.67 7.36 18.34 6 18 C5.90203125 17.40832031 5.8040625 16.81664063 5.703125 16.20703125 C4.71934505 11.00826306 3.49686775 8.07967904 0 4 C0 2.68 0 1.36 0 0 Z " fill="#747683" transform="translate(45,19)"/>
<path d="M0 0 C2.05078125 0.03255208 4.1015625 0.06510417 6.15234375 0.09765625 C6.15234375 0.42765625 6.15234375 0.75765625 6.15234375 1.09765625 C4.54359375 1.31421875 4.54359375 1.31421875 2.90234375 1.53515625 C1.66484375 1.72078125 0.42734375 1.90640625 -0.84765625 2.09765625 C-1.99234375 2.25234375 -1.99234375 2.25234375 -3.16015625 2.41015625 C-5.55595726 3.38622333 -5.7542626 4.78223441 -6.84765625 7.09765625 C-9.34765625 9.84765625 -9.34765625 9.84765625 -11.84765625 12.09765625 C-12.50765625 12.09765625 -13.16765625 12.09765625 -13.84765625 12.09765625 C-13.84765625 10.77765625 -13.84765625 9.45765625 -13.84765625 8.09765625 C-12.85765625 8.09765625 -11.86765625 8.09765625 -10.84765625 8.09765625 C-10.84765625 7.43765625 -10.84765625 6.77765625 -10.84765625 6.09765625 C-10.18765625 6.09765625 -9.52765625 6.09765625 -8.84765625 6.09765625 C-8.51765625 4.44765625 -8.18765625 2.79765625 -7.84765625 1.09765625 C-6.64109375 1.12859375 -6.64109375 1.12859375 -5.41015625 1.16015625 C-2.58661606 1.09128942 -2.56529606 0.13558647 0 0 Z " fill="#454959" transform="translate(25.84765625,40.90234375)"/>
<path d="M0 0 C4.19360449 0.67097672 7.40334352 2.8558394 11 5 C11 5.66 11 6.32 11 7 C11.66 7.33 12.32 7.66 13 8 C12.01 8 11.02 8 10 8 C10 7.34 10 6.68 10 6 C5.38 6 0.76 6 -4 6 C-4 5.34 -4 4.68 -4 4 C-2.68 3.67 -1.36 3.34 0 3 C0 2.01 0 1.02 0 0 Z " fill="#434556" transform="translate(35,15)"/>
<path d="M0 0 C1.32 0.33 2.64 0.66 4 1 C3.34 1 2.68 1 2 1 C1.731875 1.639375 1.46375 2.27875 1.1875 2.9375 C0 5 0 5 -3 6 C-4.02700444 8.32891096 -4.02700444 8.32891096 -4.6875 11.0625 C-4.93886719 11.98160156 -5.19023437 12.90070312 -5.44921875 13.84765625 C-5.63097656 14.55792969 -5.81273438 15.26820312 -6 16 C-6.33 16 -6.66 16 -7 16 C-7.33119204 11.19771544 -7.43284049 8.83582992 -5.1875 4.5 C-4.465625 3.675 -3.74375 2.85 -3 2 C-2.01 2 -1.02 2 0 2 C0 1.34 0 0.68 0 0 Z " fill="#454758" transform="translate(26,20)"/>
<path d="M0 0 C1.01610352 -0.04350586 1.01610352 -0.04350586 2.05273438 -0.08789062 C5.63703167 -0.13343888 7.34790025 0.03600697 10.16796875 2.33203125 C10.92013672 3.31236328 10.92013672 3.31236328 11.6875 4.3125 C8.7175 3.8175 8.7175 3.8175 5.6875 3.3125 C5.6875 2.6525 5.6875 1.9925 5.6875 1.3125 C4.08232903 1.39983576 2.47828338 1.50802224 0.875 1.625 C-0.01832031 1.68300781 -0.91164063 1.74101562 -1.83203125 1.80078125 C-4.65774829 2.38372445 -5.43755566 3.21233712 -7.3125 5.3125 C-7.9725 5.3125 -8.6325 5.3125 -9.3125 5.3125 C-7.97541063 -0.60889576 -5.64238833 0.0791729 0 0 Z " fill="#D7D8DE" transform="translate(35.3125,21.6875)"/>
<path d="M0 0 C0.66 0 1.32 0 2 0 C2 1.32 2 2.64 2 4 C3.65 4 5.3 4 7 4 C6.67 4.66 6.34 5.32 6 6 C2.7 6 -0.6 6 -4 6 C-4 4.68 -4 3.36 -4 2 C-2.68 2 -1.36 2 0 2 C0 1.34 0 0.68 0 0 Z " fill="#575A69" transform="translate(32,42)"/>
<path d="M0 0 C0.33 0.99 0.66 1.98 1 3 C-0.98 3.99 -0.98 3.99 -3 5 C-3 5.66 -3 6.32 -3 7 C-7.29 6.67 -11.58 6.34 -16 6 C-16 5.67 -16 5.34 -16 5 C-15.02160156 4.96132813 -15.02160156 4.96132813 -14.0234375 4.921875 C-8.11925307 4.53871259 -4.60333137 3.75534928 0 0 Z " fill="#9C9FA8" transform="translate(44,43)"/>
<path d="M0 0 C1.670625 0.061875 1.670625 0.061875 3.375 0.125 C3.375 0.785 3.375 1.445 3.375 2.125 C1.395 2.125 -0.585 2.125 -2.625 2.125 C-3.285 3.445 -3.945 4.765 -4.625 6.125 C-5.285 6.125 -5.945 6.125 -6.625 6.125 C-5.71577947 1.57889733 -4.95184304 0.17075321 0 0 Z " fill="#424556" transform="translate(25.625,52.875)"/>
<path d="M0 0 C0.33 0.99 0.66 1.98 1 3 C1.99 3 2.98 3 4 3 C4 2.01 4 1.02 4 0 C5.32 0 6.64 0 8 0 C7.34 1.65 6.68 3.3 6 5 C4.02 5 2.04 5 0 5 C0 3.35 0 1.7 0 0 Z " fill="#212336" transform="translate(35,41)"/>
<path d="M0 0 C0.66 0.33 1.32 0.66 2 1 C1.67 1.556875 1.34 2.11375 1 2.6875 C-0.68586362 6.58605961 -0.18313217 10.00692892 1 14 C0.01 14 -0.98 14 -2 14 C-2 10.04 -2 6.08 -2 2 C-1.34 2 -0.68 2 0 2 C0 1.34 0 0.68 0 0 Z " fill="#838692" transform="translate(20,23)"/>
<path d="M0 0 C0.66 0 1.32 0 2 0 C1.34 2.31 0.68 4.62 0 7 C1.65 6.01 3.3 5.02 5 4 C5 5.32 5 6.64 5 8 C3.02 8 1.04 8 -1 8 C-1.125 2.25 -1.125 2.25 0 0 Z " fill="#BCBFC6" transform="translate(12,46)"/>
<path d="M0 0 C0.66 0 1.32 0 2 0 C2 1.98 2 3.96 2 6 C-0.31 6 -2.62 6 -5 6 C-4.34 5.01 -3.68 4.02 -3 3 C-1.68 3 -0.36 3 1 3 C0.67 2.01 0.34 1.02 0 0 Z " fill="#C3C6CD" transform="translate(56,39)"/>
<path d="M0 0 C0.33 0.66 0.66 1.32 1 2 C1.66 2 2.32 2 3 2 C3 4.64 3 7.28 3 10 C2.34 10 1.68 10 1 10 C0.67 6.7 0.34 3.4 0 0 Z " fill="#434556" transform="translate(51,27)"/>
<path d="M0 0 C1.13643966 3.40931897 0.86747764 4.00335456 -0.4375 7.1875 C-0.86869141 8.26064453 -0.86869141 8.26064453 -1.30859375 9.35546875 C-1.53675781 9.89816406 -1.76492187 10.44085938 -2 11 C-2.33 11 -2.66 11 -3 11 C-3.36923077 3.49230769 -3.36923077 3.49230769 -1.5 1 C-1.005 0.67 -0.51 0.34 0 0 Z " fill="#3A3D4E" transform="translate(22,25)"/>
<path d="M0 0 C0.33 0.66 0.66 1.32 1 2 C-0.33332095 5.99996286 -2.4957827 6.83782337 -6 9 C-6.66 8.67 -7.32 8.34 -8 8 C-5.33333333 5.33333333 -2.66666667 2.66666667 0 0 Z " fill="#B3B4BE" transform="translate(49,45)"/>
<path d="M0 0 C1.134375 0.020625 2.26875 0.04125 3.4375 0.0625 C3.4375 0.7225 3.4375 1.3825 3.4375 2.0625 C2.1175 2.0625 0.7975 2.0625 -0.5625 2.0625 C-0.8925 3.3825 -1.2225 4.7025 -1.5625 6.0625 C-1.5625 4.7425 -1.5625 3.4225 -1.5625 2.0625 C-2.5525 1.7325 -3.5425 1.4025 -4.5625 1.0625 C-3.5625 0.0625 -3.5625 0.0625 0 0 Z " fill="#9296A0" transform="translate(28.5625,41.9375)"/>
<path d="M0 0 C2.0625 0.4375 2.0625 0.4375 4 1 C2.71034824 2.37562854 1.37310707 3.70766393 0 5 C-0.66 5 -1.32 5 -2 5 C-1.125 1.125 -1.125 1.125 0 0 Z " fill="#CED0D7" transform="translate(28,22)"/>
</svg>
