<?xml version="1.0" encoding="UTF-8"?>
<svg version="1.1" xmlns="http://www.w3.org/2000/svg" width="33" height="27">
<path d="M0 0 C10.89 0 21.78 0 33 0 C33 8.91 33 17.82 33 27 C22.11 27 11.22 27 0 27 C0 18.09 0 9.18 0 0 Z " fill="#F7F7F7" transform="translate(0,0)"/>
<path d="M0 0 C0 0.66 0 1.32 0 2 C0.66 2 1.32 2 2 2 C1.67 3.32 1.34 4.64 1 6 C0.01 6 -0.98 6 -2 6 C-2 6.99 -2 7.98 -2 9 C-3.98 9 -5.96 9 -8 9 C-8.12375 9.639375 -8.2475 10.27875 -8.375 10.9375 C-8.58125 11.618125 -8.7875 12.29875 -9 13 C-11.49092811 14.24546405 -12.41080733 13.7767578 -15 13 C-15 12.01 -15 11.02 -15 10 C-16.32 9.34 -17.64 8.68 -19 8 C-19 7.34 -19 6.68 -19 6 C-19.99 6 -20.98 6 -22 6 C-22.33 4.68 -22.66 3.36 -23 2 C-14.92849578 -2.80855571 -8.89633513 -2.96544504 0 0 Z " fill="#9D9D9D" transform="translate(27,10)"/>
<path d="M0 0 C2.74050355 1.69266396 3.24570962 3.2749514 4.125 6.3125 C3.42503906 5.98765625 2.72507812 5.6628125 2.00390625 5.328125 C-1.15737191 4.2128844 -3.59507687 4.04559773 -6.9375 4.0625 C-8.47083984 4.05476562 -8.47083984 4.05476562 -10.03515625 4.046875 C-12.86149903 4.31123719 -14.40790249 5.01576278 -16.875 6.3125 C-17.535 5.9825 -18.195 5.6525 -18.875 5.3125 C-17.875 2.3125 -17.875 2.3125 -14.8125 0.625 C-9.79530337 -1.33242784 -5.25262876 -1.2560634 0 0 Z " fill="#292929" transform="translate(22.875,8.6875)"/>
<path d="M0 0 C1.17755859 0.14888672 1.17755859 0.14888672 2.37890625 0.30078125 C4.4375 0.6875 4.4375 0.6875 6.4375 1.6875 C6.1075 2.6775 5.7775 3.6675 5.4375 4.6875 C4.1175 4.6875 2.7975 4.6875 1.4375 4.6875 C1.31375 5.326875 1.19 5.96625 1.0625 6.625 C0.85625 7.305625 0.65 7.98625 0.4375 8.6875 C-0.5525 9.1825 -0.5525 9.1825 -1.5625 9.6875 C-2.5525 9.3575 -3.5425 9.0275 -4.5625 8.6875 C-4.5625 7.3675 -4.5625 6.0475 -4.5625 4.6875 C-5.5525 4.3575 -6.5425 4.0275 -7.5625 3.6875 C-7.5625 3.0275 -7.5625 2.3675 -7.5625 1.6875 C-4.24985796 -0.52092803 -3.72798604 -0.50975756 0 0 Z " fill="#505050" transform="translate(17.5625,14.3125)"/>
<path d="M0 0 C9.25401683 -0.31369549 9.25401683 -0.31369549 13 2 C14.3125 4.625 14.3125 4.625 15 7 C14.34 6.690625 13.68 6.38125 13 6.0625 C9.29523985 4.75039745 5.90736009 4.39735865 2 4 C3.32 3.34 4.64 2.68 6 2 C3.03 1.505 3.03 1.505 0 1 C0 0.67 0 0.34 0 0 Z " fill="#464646" transform="translate(12,8)"/>
<path d="M0 0 C0.80824219 0.11085938 1.61648437 0.22171875 2.44921875 0.3359375 C3.37154297 0.47902344 3.37154297 0.47902344 4.3125 0.625 C4.3125 1.615 4.3125 2.605 4.3125 3.625 C0.3125 3.625 -3.6875 3.625 -7.6875 3.625 C-7.6875 2.965 -7.6875 2.305 -7.6875 1.625 C-4.33422361 -0.61051759 -3.78006343 -0.54783528 0 0 Z " fill="#151515" transform="translate(17.6875,14.375)"/>
<path d="M0 0 C0.99 0.33 1.98 0.66 3 1 C3 1.66 3 2.32 3 3 C3.66 3 4.32 3 5 3 C4.67 4.32 4.34 5.64 4 7 C3.01 7 2.02 7 1 7 C1 7.99 1 8.98 1 10 C0.34 9.67 -0.32 9.34 -1 9 C-0.67 8.34 -0.34 7.68 0 7 C-1.65 6.67 -3.3 6.34 -5 6 C-2.35261084 4.5393715 -1.10551666 4 2 4 C1.34 2.68 0.68 1.36 0 0 Z " fill="#898989" transform="translate(24,9)"/>
<path d="M0 0 C2.31 0.33 4.62 0.66 7 1 C7.33 2.32 7.66 3.64 8 5 C1.125 2.25 1.125 2.25 0 0 Z " fill="#1A1A1A" transform="translate(19,10)"/>
</svg>
