<?xml version="1.0" encoding="UTF-8"?>
<svg version="1.1" xmlns="http://www.w3.org/2000/svg" width="58" height="65">
<path d="M0 0 C19.14 0 38.28 0 58 0 C58 21.45 58 42.9 58 65 C38.86 65 19.72 65 0 65 C0 43.55 0 22.1 0 0 Z " fill="#EDEDF3" transform="translate(0,0)"/>
<path d="M0 0 C1.84271484 0.01933594 1.84271484 0.01933594 3.72265625 0.0390625 C6.9375 0.375 6.9375 0.375 9.9375 2.375 C10.125 6 10.125 6 9.9375 9.375 C11.92317708 9.30989583 13.90885417 9.24479167 15.89453125 9.1796875 C17.9375 9.375 17.9375 9.375 20.9375 11.375 C23.94142766 16.01235647 23.26706937 21.16752728 23.25 26.5 C23.26611328 27.51449219 23.28222656 28.52898438 23.29882812 29.57421875 C23.29947266 30.54230469 23.30011719 31.51039062 23.30078125 32.5078125 C23.30376221 33.39355957 23.30674316 34.27930664 23.30981445 35.19189453 C23.18695068 35.91231934 23.06408691 36.63274414 22.9375 37.375 C21.9475 38.035 20.9575 38.695 19.9375 39.375 C19.6075 40.365 19.2775 41.355 18.9375 42.375 C17.9475 42.375 16.9575 42.375 15.9375 42.375 C15.9375 43.035 15.9375 43.695 15.9375 44.375 C11.63254985 44.47435088 7.32821817 44.54669268 3.02246094 44.59472656 C1.55977748 44.61476332 0.09717334 44.64200104 -1.36523438 44.67675781 C-3.4754601 44.72563225 -5.58462136 44.74804659 -7.6953125 44.765625 C-8.96262207 44.78657227 -10.22993164 44.80751953 -11.53564453 44.82910156 C-16.55293878 44.18309801 -19.54456591 41.89293409 -23.0625 38.375 C-23.62550357 34.46080403 -23.57202727 30.5124233 -23.625 26.5625 C-23.67462891 25.46873047 -23.72425781 24.37496094 -23.77539062 23.24804688 C-23.87594914 15.39011756 -23.87594914 15.39011756 -21.56762695 12.50952148 C-18.69599687 10.38024837 -16.70421974 9.44326806 -13.125 9.0625 C-12.444375 9.165625 -11.76375 9.26875 -11.0625 9.375 C-11.18625 8.26125 -11.18625 8.26125 -11.3125 7.125 C-11.0625 4.375 -11.0625 4.375 -9.48828125 2.2265625 C-6.21240044 -0.27386826 -4.07845029 -0.09434901 0 0 Z " fill="#313345" transform="translate(28.0625,11.625)"/>
<path d="M0 0 C9.57 0 19.14 0 29 0 C29 6.93 29 13.86 29 21 C27.35 21 25.7 21 24 21 C24 21.66 24 22.32 24 23 C15.42 23 6.84 23 -2 23 C-2 22.34 -2 21.68 -2 21 C-3.32 21 -4.64 21 -6 21 C-6 16.38 -6 11.76 -6 7 C-1.05 7.33 3.9 7.66 9 8 C9 9.32 9 10.64 9 12 C10.32 12 11.64 12 13 12 C13 10.68 13 9.36 13 8 C19.435 7.505 19.435 7.505 26 7 C26 5.68 26 4.36 26 3 C18.08 3 10.16 3 2 3 C2 2.34 2 1.68 2 1 C1.34 0.67 0.68 0.34 0 0 Z " fill="#EBEBF0" transform="translate(17,27)"/>
<path d="M0 0 C1.258125 -0.04125 2.51625 -0.0825 3.8125 -0.125 C4.52019531 -0.14820312 5.22789063 -0.17140625 5.95703125 -0.1953125 C8 0 8 0 11 2 C13.02238725 5.09701678 13.23781149 7.54821193 13.1953125 11.203125 C13.18886719 12.1828125 13.18242188 13.1625 13.17578125 14.171875 C13.15902344 15.18765625 13.14226563 16.2034375 13.125 17.25 C13.11597656 18.28125 13.10695312 19.3125 13.09765625 20.375 C13.07412011 22.91690287 13.04124023 25.4583328 13 28 C12.01 28.495 12.01 28.495 11 29 C11.00523682 28.34926514 11.01047363 27.69853027 11.01586914 27.02807617 C11.03664938 24.08122726 11.0496635 21.13439377 11.0625 18.1875 C11.07506836 16.65125977 11.07506836 16.65125977 11.08789062 15.08398438 C11.09111328 14.10107422 11.09433594 13.11816406 11.09765625 12.10546875 C11.10289307 11.19949951 11.10812988 10.29353027 11.11352539 9.36010742 C11.09920981 6.84715961 11.09920981 6.84715961 10 4 C10 6.64518029 10.05769343 9.29105065 10.17578125 11.93359375 C10.22207623 13.43487374 10.26762698 14.93617683 10.3125 16.4375 C10.35439453 17.18837891 10.39628906 17.93925781 10.43945312 18.71289062 C10.45556641 19.44572266 10.47167969 20.17855469 10.48828125 20.93359375 C10.51446533 21.59415771 10.54064941 22.25472168 10.56762695 22.93530273 C9.62682579 26.3573911 7.74851486 27.84331359 5 30 C1.65014648 30.64697266 1.65014648 30.64697266 -2.12890625 30.6640625 C-3.13618019 30.67123795 -3.13618019 30.67123795 -4.1638031 30.67855835 C-5.57659258 30.68194616 -6.98946165 30.67282167 -8.40209961 30.65185547 C-10.56086053 30.62502038 -12.71444456 30.65165086 -14.87304688 30.68359375 C-16.25001143 30.68029026 -17.62697277 30.67388526 -19.00390625 30.6640625 C-20.24986572 30.65842285 -21.4958252 30.6527832 -22.77954102 30.64697266 C-26 30 -26 30 -28.40844727 27.71484375 C-29.94582913 25.09240375 -30.49753983 23.86896789 -30.4609375 20.8984375 C-30.45513672 19.79242188 -30.45513672 19.79242188 -30.44921875 18.6640625 C-30.42472656 17.90867187 -30.40023438 17.15328125 -30.375 16.375 C-30.37371094 15.611875 -30.37242188 14.84875 -30.37109375 14.0625 C-30.31037275 10.21683669 -30.17483583 8.26225374 -28 5 C-24.49691114 2.56443244 -21.2198674 2.76932316 -17.046875 2.8046875 C-16.38665344 2.8075174 -15.72643188 2.81034729 -15.04620361 2.81326294 C-12.94728103 2.82441585 -10.84879258 2.84951054 -8.75 2.875 C-7.32292285 2.88503616 -5.89583898 2.8941609 -4.46875 2.90234375 C-0.97902672 2.92433889 2.51044423 2.95883464 6 3 C6 2.34 6 1.68 6 1 C4.02 1 2.04 1 0 1 C0 0.67 0 0.34 0 0 Z M-21 6 C-20.34 6.33 -19.68 6.66 -19 7 C-19 7.66 -19 8.32 -19 9 C-11.08 9 -3.16 9 5 9 C5 10.32 5 11.64 5 13 C-1.435 13.495 -1.435 13.495 -8 14 C-8 15.32 -8 16.64 -8 18 C-9.32 18 -10.64 18 -12 18 C-12 16.68 -12 15.36 -12 14 C-16.95 13.67 -21.9 13.34 -27 13 C-27 17.62 -27 22.24 -27 27 C-25.68 27 -24.36 27 -23 27 C-23 27.66 -23 28.32 -23 29 C-14.42 29 -5.84 29 3 29 C3 28.34 3 27.68 3 27 C4.65 27 6.3 27 8 27 C8 20.07 8 13.14 8 6 C-1.57 6 -11.14 6 -21 6 Z " fill="#B4B6BE" transform="translate(38,21)"/>
<path d="M0 0 C1.16015625 0.00322266 2.3203125 0.00644531 3.515625 0.00976562 C5.32546875 0.02233398 5.32546875 0.02233398 7.171875 0.03515625 C9.00492188 0.04192383 9.00492188 0.04192383 10.875 0.04882812 C13.89067446 0.0606081 16.90624998 0.07705772 19.921875 0.09765625 C19.921875 0.42765625 19.921875 0.75765625 19.921875 1.09765625 C12.661875 1.42765625 5.401875 1.75765625 -2.078125 2.09765625 C-2.078125 2.75765625 -2.078125 3.41765625 -2.078125 4.09765625 C5.841875 4.09765625 13.761875 4.09765625 21.921875 4.09765625 C21.921875 5.41765625 21.921875 6.73765625 21.921875 8.09765625 C15.486875 8.59265625 15.486875 8.59265625 8.921875 9.09765625 C8.921875 10.41765625 8.921875 11.73765625 8.921875 13.09765625 C7.601875 13.09765625 6.281875 13.09765625 4.921875 13.09765625 C4.921875 11.77765625 4.921875 10.45765625 4.921875 9.09765625 C4.34179688 9.10925781 3.76171875 9.12085938 3.1640625 9.1328125 C-1.3779496 9.18527799 -5.60526069 9.01516688 -10.078125 8.09765625 C-10.078125 11.39765625 -10.078125 14.69765625 -10.078125 18.09765625 C-10.408125 18.09765625 -10.738125 18.09765625 -11.078125 18.09765625 C-11.10512225 15.82688783 -11.12451953 13.55602804 -11.140625 11.28515625 C-11.15802734 9.38830078 -11.15802734 9.38830078 -11.17578125 7.453125 C-11.078125 4.09765625 -11.078125 4.09765625 -10.078125 1.09765625 C-6.8283284 -0.21838877 -3.46331128 -0.01697702 0 0 Z " fill="#DCDDE3" transform="translate(21.078125,25.90234375)"/>
<path d="M0 0 C1.22847656 0.01289063 2.45695312 0.02578125 3.72265625 0.0390625 C6.9375 0.375 6.9375 0.375 9.9375 2.375 C10.125 6 10.125 6 9.9375 9.375 C9.6075 9.375 9.2775 9.375 8.9375 9.375 C8.9375 7.725 8.9375 6.075 8.9375 4.375 C8.2775 4.375 7.6175 4.375 6.9375 4.375 C6.9375 6.355 6.9375 8.335 6.9375 10.375 C2.6475 10.375 -1.6425 10.375 -6.0625 10.375 C-6.0625 8.065 -6.0625 5.755 -6.0625 3.375 C-8.8464183 4.76695915 -9.04148997 6.53075779 -10.0625 9.375 C-10.3925 9.375 -10.7225 9.375 -11.0625 9.375 C-11.41169017 6.23228848 -11.38726296 4.81822489 -9.48828125 2.2265625 C-6.21240044 -0.27386826 -4.07845029 -0.09434901 0 0 Z " fill="#7A7B89" transform="translate(28.0625,11.625)"/>
<path d="M0 0 C0.66 0.33 1.32 0.66 2 1 C1.67 1.33 1.34 1.66 1 2 C0.7205067 5.61732092 0.76820245 9.24816261 0.75 12.875 C0.729375 13.89464844 0.70875 14.91429687 0.6875 15.96484375 C0.68234375 16.94324219 0.6771875 17.92164062 0.671875 18.9296875 C0.6625293 19.82929199 0.65318359 20.72889648 0.64355469 21.65576172 C0.86001157 23.99309244 0.86001157 23.99309244 1.99633789 25.79858398 C5.24942407 27.74916728 8.70708303 27.36473954 12.38671875 27.29296875 C13.20372757 27.28872391 14.02073639 27.28447906 14.86250305 27.28010559 C17.47117107 27.26331691 20.07906562 27.22566519 22.6875 27.1875 C24.45636905 27.17245337 26.22525021 27.15876492 27.99414062 27.14648438 C32.32972496 27.11341286 36.66473136 27.0616299 41 27 C41 27.66 41 28.32 41 29 C40.01 29 39.02 29 38 29 C38 29.66 38 30.32 38 31 C33.69504985 31.09935088 29.39071817 31.17169268 25.08496094 31.21972656 C23.62227748 31.23976332 22.15967334 31.26700104 20.69726562 31.30175781 C18.5870399 31.35063225 16.47787864 31.37304659 14.3671875 31.390625 C13.09987793 31.41157227 11.83256836 31.43251953 10.52685547 31.45410156 C5.50956122 30.80809801 2.51793409 28.51793409 -1 25 C-1.24291992 22.58569336 -1.24291992 22.58569336 -1.23046875 19.58984375 C-1.22853516 18.51798828 -1.22660156 17.44613281 -1.22460938 16.34179688 C-1.21236328 15.21837891 -1.20011719 14.09496094 -1.1875 12.9375 C-1.18685547 11.81021484 -1.18621094 10.68292969 -1.18554688 9.52148438 C-1.14013317 1.14013317 -1.14013317 1.14013317 0 0 Z " fill="#8E909B" transform="translate(6,25)"/>
<path d="M0 0 C1.258125 -0.04125 2.51625 -0.0825 3.8125 -0.125 C4.52019531 -0.14820312 5.22789063 -0.17140625 5.95703125 -0.1953125 C8 0 8 0 11 2 C13.02238725 5.09701678 13.23781149 7.54821193 13.1953125 11.203125 C13.18886719 12.1828125 13.18242188 13.1625 13.17578125 14.171875 C13.15902344 15.18765625 13.14226563 16.2034375 13.125 17.25 C13.11597656 18.28125 13.10695312 19.3125 13.09765625 20.375 C13.07412011 22.91690287 13.04124023 25.4583328 13 28 C12.01 28.495 12.01 28.495 11 29 C11.00523682 28.34926514 11.01047363 27.69853027 11.01586914 27.02807617 C11.03664938 24.08122726 11.0496635 21.13439377 11.0625 18.1875 C11.07506836 16.65125977 11.07506836 16.65125977 11.08789062 15.08398438 C11.09111328 14.10107422 11.09433594 13.11816406 11.09765625 12.10546875 C11.10289307 11.19949951 11.10812988 10.29353027 11.11352539 9.36010742 C11.09920981 6.84715961 11.09920981 6.84715961 10 4 C10 6.68307973 10.02000268 9.35735813 10.0703125 12.0390625 C10.08882547 13.56770492 10.10704607 15.09635091 10.125 16.625 C10.14175781 17.40101562 10.15851562 18.17703125 10.17578125 18.9765625 C10.19321694 20.98515411 10.1038293 22.99401801 10 25 C9.34 25.66 8.68 26.32 8 27 C8 20.07 8 13.14 8 6 C7.34 6 6.68 6 6 6 C6 5.34 6 4.68 6 4 C-3.9 4 -13.8 4 -24 4 C-24 3.67 -24 3.34 -24 3 C-14.1 3 -4.2 3 6 3 C6 2.34 6 1.68 6 1 C4.02 1 2.04 1 0 1 C0 0.67 0 0.34 0 0 Z " fill="#848692" transform="translate(38,21)"/>
<path d="M0 0 C8.58 0 17.16 0 26 0 C26 0.66 26 1.32 26 2 C22.36576791 4.32590854 19.22911669 4.16265833 15 4 C15 5.32 15 6.64 15 8 C13.68 8 12.36 8 11 8 C11 6.68 11 5.36 11 4 C9.9275 4.04125 8.855 4.0825 7.75 4.125 C4.34252515 4.0114175 2.79260369 3.78726636 0 2 C0 1.34 0 0.68 0 0 Z " fill="#4C4E5E" transform="translate(15,31)"/>
<path d="M0 0 C0.66 0 1.32 0 2 0 C4.82987779 4.24481668 4.36789905 7.8830297 4.375 12.875 C4.39949219 13.77347656 4.42398438 14.67195313 4.44921875 15.59765625 C4.45501953 16.90669922 4.45501953 16.90669922 4.4609375 18.2421875 C4.46915527 19.0347998 4.47737305 19.82741211 4.48583984 20.64404297 C3.7814954 24.0595826 2.56347277 25.64838234 0 28 C-3.29980469 28.47583008 -3.29980469 28.47583008 -7.171875 28.26953125 C-7.8542926 28.24026047 -8.53671021 28.21098969 -9.23980713 28.18083191 C-11.41183769 28.08213293 -13.579976 27.94785603 -15.75 27.8125 C-17.22514517 27.73917975 -18.70040812 27.66818951 -20.17578125 27.59960938 C-23.78561114 27.42672014 -27.39281267 27.22188823 -31 27 C-31 26.67 -31 26.34 -31 26 C-30.17274414 25.9906543 -29.34548828 25.98130859 -28.49316406 25.97167969 C-24.74483585 25.91799681 -20.99775838 25.8343429 -17.25 25.75 C-15.29707031 25.72873047 -15.29707031 25.72873047 -13.3046875 25.70703125 C-11.42910156 25.65869141 -11.42910156 25.65869141 -9.515625 25.609375 C-8.36352539 25.58842773 -7.21142578 25.56748047 -6.02441406 25.54589844 C-2.38067084 24.88821279 -1.17086753 23.96256488 1 21 C1.31926908 18.02406066 1.42544101 15.45654456 1.3125 12.5 C1.30283203 11.74074219 1.29316406 10.98148438 1.28320312 10.19921875 C1.21176994 6.65240574 0.94509757 3.41319587 0 0 Z " fill="#545666" transform="translate(46,25)"/>
<path d="M0 0 C0.66 0 1.32 0 2 0 C2.33 1.65 2.66 3.3 3 5 C5.97 5.495 5.97 5.495 9 6 C9 6.66 9 7.32 9 8 C-1.23 8 -11.46 8 -22 8 C-22 7.34 -22 6.68 -22 6 C-14.74 6 -7.48 6 0 6 C0 4.02 0 2.04 0 0 Z " fill="#353849" transform="translate(35,16)"/>
<path d="M0 0 C9.57 0.33 19.14 0.66 29 1 C29 2.32 29 3.64 29 5 C27.68 4.67 26.36 4.34 25 4 C25.66 4 26.32 4 27 4 C27 3.34 27 2.68 27 2 C18.42 2 9.84 2 1 2 C1 2.66 1 3.32 1 4 C2.32 4.33 3.64 4.66 5 5 C4.01 5.495 4.01 5.495 3 6 C0.875 5.0625 0.875 5.0625 -1 4 C-0.67 2.68 -0.34 1.36 0 0 Z " fill="#ABACB5" transform="translate(14,29)"/>
<path d="M0 0 C0 6.93 0 13.86 0 21 C-0.33 21 -0.66 21 -1 21 C-1.06058594 20.03578125 -1.12117188 19.0715625 -1.18359375 18.078125 C-1.26738281 16.81484375 -1.35117187 15.5515625 -1.4375 14.25 C-1.51871094 12.99703125 -1.59992187 11.7440625 -1.68359375 10.453125 C-1.92515522 7.81682447 -2.24283934 5.51962706 -3 3 C-4.98 3 -6.96 3 -9 3 C-9 2.34 -9 1.68 -9 1 C-5.94152152 0.45627049 -3.11227195 0 0 0 Z " fill="#DEE0E5" transform="translate(46,27)"/>
<path d="M0 0 C0.66 0 1.32 0 2 0 C2 2.31 2 4.62 2 7 C-0.97 7 -3.94 7 -7 7 C-6.67 7.99 -6.34 8.98 -6 10 C-7.65 10.33 -9.3 10.66 -11 11 C-11 10.01 -11 9.02 -11 8 C-7.5647952 5.70986347 -6.014669 5.82157027 -2 6 C-1.34 4.02 -0.68 2.04 0 0 Z " fill="#474B5A" transform="translate(20,15)"/>
<path d="M0 0 C5.94 0 11.88 0 18 0 C18 0.66 18 1.32 18 2 C14.51555556 4.11555556 14.51555556 4.11555556 12.1875 3.59375 C11.465625 3.3978125 10.74375 3.201875 10 3 C8.25309081 2.7856066 6.5025977 2.59892347 4.75 2.4375 C3.41195313 2.31181641 3.41195313 2.31181641 2.046875 2.18359375 C1.37140625 2.12300781 0.6959375 2.06242187 0 2 C0 1.34 0 0.68 0 0 Z " fill="#606171" transform="translate(23,31)"/>
<path d="M0 0 C0.99 0.33 1.98 0.66 3 1 C3.08714316 4.91652632 3.14043985 8.83280311 3.1875 12.75 C3.22520508 14.41675781 3.22520508 14.41675781 3.26367188 16.1171875 C3.27333984 17.18710937 3.28300781 18.25703125 3.29296875 19.359375 C3.3086792 20.34389648 3.32438965 21.32841797 3.34057617 22.34277344 C2.94609552 25.42057091 2.15156103 26.79384078 0 29 C-0.66 29 -1.32 29 -2 29 C-1.625 27.0625 -1.625 27.0625 -1 25 C-0.34 24.67 0.32 24.34 1 24 C1.02893932 20.37501666 1.04677792 16.75006287 1.0625 13.125 C1.07087891 12.09246094 1.07925781 11.05992188 1.08789062 9.99609375 C1.09272461 8.51689453 1.09272461 8.51689453 1.09765625 7.0078125 C1.10551147 5.64100342 1.10551147 5.64100342 1.11352539 4.24658203 C1.14885565 1.96312491 1.14885565 1.96312491 0 0 Z " fill="#C1C2CA" transform="translate(49,25)"/>
<path d="M0 0 C3.96 0 7.92 0 12 0 C11.67 0.99 11.34 1.98 11 3 C7.37 3 3.74 3 0 3 C0 2.01 0 1.02 0 0 Z " fill="#D9DBE0" transform="translate(22,18)"/>
<path d="M0 0 C0.66 0 1.32 0 2 0 C4.06723714 3.10085571 4.24497423 3.72931681 4.1953125 7.23046875 C4.18886719 8.03291016 4.18242188 8.83535156 4.17578125 9.66210938 C4.15902344 10.49548828 4.14226563 11.32886719 4.125 12.1875 C4.11597656 13.03248047 4.10695313 13.87746094 4.09765625 14.74804688 C4.07410703 16.83215243 4.03823647 18.91611217 4 21 C3.67 21 3.34 21 3 21 C2.92652344 19.48019531 2.92652344 19.48019531 2.8515625 17.9296875 C2.77647436 16.57810089 2.70092919 15.22653962 2.625 13.875 C2.5940625 13.20984375 2.563125 12.5446875 2.53125 11.859375 C2.28080367 7.60178738 1.52471803 3.97914217 0 0 Z " fill="#383A4D" transform="translate(46,25)"/>
<path d="M0 0 C0.99 0 1.98 0 3 0 C4.04115841 1.30144802 5.03886134 2.63838689 6 4 C6.99 4.66 7.98 5.32 9 6 C6.75 6.75 6.75 6.75 4 7 C1.6875 5.25 1.6875 5.25 0 3 C0 2.01 0 1.02 0 0 Z " fill="#4D4F5F" transform="translate(6,46)"/>
<path d="M0 0 C2.64 0.33 5.28 0.66 8 1 C8 1.33 8 1.66 8 2 C5.69 2 3.38 2 1 2 C1 2.66 1 3.32 1 4 C2.32 4.33 3.64 4.66 5 5 C4.01 5.495 4.01 5.495 3 6 C0.875 5.0625 0.875 5.0625 -1 4 C-0.67 2.68 -0.34 1.36 0 0 Z " fill="#9DA0A9" transform="translate(14,29)"/>
<path d="M0 0 C2.64 0 5.28 0 8 0 C8.66 1.32 9.32 2.64 10 4 C8.1875 4.625 8.1875 4.625 6 5 C5.01 4.34 4.02 3.68 3 3 C3.99 3 4.98 3 6 3 C6 2.34 6 1.68 6 1 C4.02 1 2.04 1 0 1 C0 0.67 0 0.34 0 0 Z " fill="#6B6D7B" transform="translate(38,21)"/>
<path d="M0 0 C-1.32 0.33 -2.64 0.66 -4 1 C-3.67 1.99 -3.34 2.98 -3 4 C-4.65 4.33 -6.3 4.66 -8 5 C-8 4.01 -8 3.02 -8 2 C-4.77208445 -0.1519437 -3.71599191 -0.20086443 0 0 Z " fill="#626472" transform="translate(17,21)"/>
</svg>
